<svg width="33" height="32" viewBox="0 0 33 32" fill="none" xmlns="http://www.w3.org/2000/svg">
<path d="M21.5321 8L19.6541 12L20.5001 13.998H22.5001L23.4281 12L21.5321 8Z" fill="#F4511E"/>
<path d="M14.5 2L16.5 10H18.5L21.532 4L24.5 10H26.5L28.5 2H14.5ZM28.5 20H26.5C25.4652 19.9217 24.4926 19.4751 23.7588 18.7412C23.0249 18.0074 22.5784 17.0349 22.5 16H20.5C20.4234 17.0636 19.9423 18.0574 19.1556 18.7772C18.3688 19.497 17.3362 19.8881 16.27 19.87C14.748 22.25 11.115 24.153 8.50001 25.018C7.50929 24.6397 6.67467 23.9391 6.1305 23.0288C5.58632 22.1186 5.36424 21.0518 5.50001 20H4.50001C-0.217991 27.978 7.56401 33.219 15.455 27.895C19.35 24.497 30.158 27.487 28.5 20Z" fill="#F4511E"/>
<path d="M7.5 18C9.15685 18 10.5 16.6569 10.5 15C10.5 13.3431 9.15685 12 7.5 12C5.84315 12 4.5 13.3431 4.5 15C4.5 16.6569 5.84315 18 7.5 18Z" fill="#F4511E"/>
<path d="M27.5 18C29.1569 18 30.5 16.6569 30.5 15C30.5 13.3431 29.1569 12 27.5 12C25.8431 12 24.5 13.3431 24.5 15C24.5 16.6569 25.8431 18 27.5 18Z" fill="#F4511E"/>
<path d="M16.5 18C17.6046 18 18.5 17.1046 18.5 16C18.5 14.8954 17.6046 14 16.5 14C15.3954 14 14.5 14.8954 14.5 16C14.5 17.1046 15.3954 18 16.5 18Z" fill="#F4511E"/>
</svg>
