<svg width="24" height="24" viewBox="0 0 24 24" fill="none" xmlns="http://www.w3.org/2000/svg">
<path d="M18.2869 9.06655L22.0592 12.8387C22.6714 13.4427 23.158 14.1618 23.491 14.9545C23.8241 15.7473 23.9971 16.5982 24 17.4581C24.0028 18.318 23.8356 19.1699 23.5078 19.9649C23.1801 20.7599 22.6983 21.4823 22.0902 22.0903C21.4821 22.6984 20.7598 23.1801 19.9647 23.5079C19.1697 23.8356 18.3177 24.0028 17.4577 24C16.5978 23.9971 15.7469 23.8241 14.9541 23.4911C14.1613 23.158 13.4422 22.6714 12.8382 22.0593L11.5815 20.8027C11.4116 20.6388 11.276 20.4426 11.1827 20.2257C11.0894 20.0088 11.0403 19.7755 11.0381 19.5394C11.0359 19.3033 11.0808 19.0691 11.1701 18.8505C11.2594 18.632 11.3914 18.4333 11.5583 18.2663C11.7252 18.0993 11.9237 17.9671 12.1422 17.8776C12.3607 17.7881 12.5948 17.743 12.8309 17.745C13.067 17.7469 13.3004 17.7958 13.5174 17.8889C13.7344 17.982 13.9307 18.1174 14.0948 18.2871L15.3539 19.5449C15.9106 20.0966 16.6632 20.4053 17.447 20.4035C18.2308 20.4017 18.982 20.0895 19.5361 19.5352C20.0903 18.9809 20.4023 18.2297 20.4039 17.4459C20.4055 16.6621 20.0966 15.9097 19.5447 15.3531L15.7724 11.5809C15.3646 11.173 14.8467 10.893 14.2822 10.7751C13.7176 10.6571 13.1309 10.7065 12.594 10.9171C12.4027 10.9929 12.2233 11.0704 12.0557 11.1494L11.5056 11.4067C10.7706 11.7386 10.2051 11.8809 9.48549 11.1625C8.45171 10.1287 8.71964 9.17443 9.97986 8.30548C11.2352 7.4417 12.7535 7.04486 14.271 7.18389C15.7885 7.32292 17.2094 7.98904 18.2869 9.06655ZM11.1618 1.94187L12.4185 3.19847C12.7426 3.53369 12.922 3.98279 12.9182 4.44903C12.9144 4.91527 12.7276 5.36136 12.398 5.69121C12.0685 6.02106 11.6225 6.20828 11.1563 6.21255C10.69 6.21682 10.2407 6.0378 9.90517 5.71404L8.64732 4.45744C8.374 4.1743 8.04702 3.94843 7.68547 3.79301C7.32391 3.63758 6.93502 3.55572 6.54149 3.55219C6.14796 3.54865 5.75766 3.62353 5.39338 3.77244C5.02909 3.92136 4.69811 4.14133 4.41975 4.41951C4.14139 4.6977 3.92123 5.02854 3.7721 5.39272C3.62297 5.75691 3.54787 6.14714 3.55118 6.54065C3.55449 6.93417 3.63614 7.32309 3.79137 7.68471C3.94659 8.04634 4.17229 8.37343 4.45529 8.6469L8.22764 12.4191C8.63538 12.827 9.15328 13.107 9.71784 13.225C10.2824 13.3429 10.8691 13.2935 11.406 13.0829C11.5973 13.0071 11.7767 12.9296 11.9443 12.8506L12.4944 12.5933C13.2294 12.2614 13.7961 12.1191 14.5145 12.8375C15.5483 13.8713 15.2804 14.8256 14.0201 15.6945C12.7648 16.5583 11.2465 16.9551 9.729 16.8161C8.2115 16.6771 6.79063 16.011 5.71314 14.9334L1.94078 11.1613C1.32864 10.5573 0.842028 9.83825 0.508952 9.04546C0.175875 8.25268 0.00291752 7.40184 3.65935e-05 6.54193C-0.00284433 5.68203 0.164409 4.83005 0.492166 4.03505C0.819923 3.24005 1.30171 2.51774 1.90979 1.90969C2.51786 1.30164 3.24021 0.819882 4.03525 0.492141C4.83029 0.164401 5.68231 -0.00284419 6.54226 3.65917e-05C7.4022 0.00291738 8.25308 0.175867 9.04591 0.508927C9.83873 0.841987 10.5578 1.32976 11.1618 1.94187Z" fill="black"/>
</svg>
