<svg width="33" height="32" viewBox="0 0 33 32" fill="none" xmlns="http://www.w3.org/2000/svg">
<path d="M18.9025 2.60374C18.7112 2.60374 18.5291 2.64918 18.3653 2.7038C18.7204 2.9406 18.9115 3.25004 19.0117 3.60513C19.0208 3.65068 19.0298 3.68705 19.039 3.7326C19.0482 3.77814 19.0571 3.81452 19.0571 3.86006C19.0846 4.47009 18.8933 4.54284 18.7659 4.907C18.5656 5.37132 18.6202 5.87212 18.866 6.27265C18.8841 6.3182 18.9115 6.37292 18.9479 6.42742C18.6839 4.6703 20.1497 4.4063 20.4228 3.85996C20.441 3.3775 20.0496 3.05889 19.74 2.84044C19.4214 2.65825 19.1482 2.60374 18.9025 2.60374ZM21.1057 2.99521C21.0784 3.15905 21.0965 3.11361 21.0875 3.19542C21.0784 3.25004 21.0784 3.32289 21.0692 3.3775C21.0511 3.43212 21.0419 3.48673 21.0238 3.54145L20.9691 3.70529C20.9417 3.7599 20.9236 3.80545 20.8963 3.86913L20.8417 3.95105C20.8234 3.96929 20.8144 3.9966 20.7961 4.01484C20.7596 4.06038 20.7233 4.115 20.696 4.15137C20.6504 4.19692 20.6231 4.24246 20.5685 4.27884V4.2879C20.523 4.32438 20.4866 4.36076 20.441 4.39724C20.2953 4.50646 20.1315 4.58838 19.9767 4.69761C19.9312 4.73409 19.8766 4.7614 19.8402 4.79788C19.7946 4.83414 19.7491 4.87062 19.7127 4.907L19.5852 5.03446C19.5489 5.08001 19.5124 5.12556 19.4851 5.171C19.4487 5.21654 19.4122 5.27126 19.3849 5.3167C19.3576 5.37132 19.3395 5.41697 19.3121 5.48065C19.2939 5.53526 19.2666 5.5807 19.2575 5.64449C19.2393 5.70817 19.2211 5.76289 19.212 5.8175C19.2028 5.84481 19.2028 5.88118 19.1938 5.90849C19.1847 5.9358 19.1847 5.9631 19.1756 5.99041C19.1756 6.04502 19.1665 6.10881 19.1665 6.16342C19.1665 6.20897 19.1665 6.24534 19.1755 6.29089C19.1755 6.3455 19.1847 6.40012 19.1937 6.4639C19.2028 6.51852 19.212 6.57313 19.2302 6.62774L19.2848 6.79158C19.303 6.82806 19.3212 6.86444 19.3303 6.89185L17.7371 6.27265C17.464 6.1998 17.2 6.12705 16.936 6.06326C16.7903 6.02689 16.6446 5.99041 16.499 5.9631C16.0801 5.88094 15.6579 5.81716 15.2335 5.77196C15.2153 5.77196 15.2153 5.76278 15.197 5.76278C14.7782 5.71734 14.3685 5.6991 13.9588 5.6991C13.6494 5.6991 13.3489 5.71724 13.0484 5.73548C12.6296 5.76278 12.2018 5.8175 11.7829 5.89025C11.6827 5.90849 11.5735 5.92673 11.4734 5.94497C11.2549 5.99041 11.0546 6.03596 10.8452 6.0815C10.745 6.10881 10.6358 6.13612 10.5356 6.16342C10.4355 6.20897 10.3353 6.25452 10.2353 6.29089C10.1611 6.3281 10.0852 6.36153 10.0076 6.39105C9.98941 6.40012 9.98034 6.40012 9.97117 6.40918C9.90647 6.4407 9.84273 6.47414 9.78002 6.50945C9.76189 6.51852 9.74365 6.52758 9.73447 6.52758C9.66162 6.56396 9.57981 6.60044 9.51602 6.63681C9.47047 6.65505 9.41575 6.68236 9.37949 6.70966C9.36125 6.7278 9.33394 6.73697 9.3157 6.74614C9.25202 6.78241 9.18823 6.81889 9.13362 6.8462C9.06983 6.88268 9.01522 6.91905 8.96978 6.94646C8.92423 6.98273 8.86951 7.01014 8.83325 7.04652C8.82407 7.05558 8.81501 7.05558 8.81501 7.06465C8.76874 7.09297 8.72596 7.12662 8.68754 7.16492L8.6693 7.18305C8.63293 7.21036 8.59645 7.23777 8.56914 7.26508C8.55101 7.27414 8.54183 7.28321 8.52359 7.29238C8.48722 7.31969 8.45085 7.35606 8.42343 7.38337C8.41437 7.4015 8.4053 7.4015 8.39613 7.41068C8.35069 7.45622 8.31421 7.48353 8.26866 7.52908C8.25959 7.52908 8.25959 7.53814 8.25053 7.54721C8.20498 7.58369 8.16861 7.62006 8.12306 7.66561C8.11399 7.67468 8.11399 7.68374 8.10493 7.68374C8.06845 7.72022 8.03197 7.7567 8.00466 7.79308C7.98653 7.81121 7.96829 7.82038 7.95922 7.83862C7.92274 7.88417 7.88637 7.92054 7.84082 7.96609C7.83175 7.98422 7.82269 7.98422 7.81351 8.00246C7.7589 8.05708 7.71335 8.11169 7.64967 8.1663L7.63143 8.18455C7.52221 8.30294 7.40381 8.42134 7.27634 8.5214C7.14887 8.63062 7.02141 8.73996 6.88487 8.83094C6.74834 8.9311 6.61181 9.01302 6.4661 9.09494C6.32957 9.1678 6.18386 9.24065 6.02909 9.30433C5.88093 9.3685 5.72888 9.42325 5.57383 9.46828C5.28253 9.53196 4.98205 9.65036 4.72722 9.6686C4.6725 9.6686 4.60882 9.68673 4.55421 9.68673C4.49042 9.70487 4.43581 9.71404 4.38119 9.73228C4.32658 9.75052 4.27197 9.77782 4.21735 9.79596C4.16274 9.81409 4.10813 9.8415 4.05351 9.86881C4.00797 9.90529 3.95325 9.9326 3.89874 9.96908C3.85319 10.0053 3.79847 10.0418 3.76221 10.0874C3.71655 10.1237 3.66194 10.1693 3.62557 10.2148C3.58002 10.2603 3.54365 10.3058 3.50717 10.3514C3.47079 10.406 3.43442 10.4515 3.40711 10.5152C3.37063 10.5608 3.33426 10.6155 3.30685 10.6792C3.27943 10.7428 3.25234 10.7976 3.2341 10.8612C3.21597 10.9159 3.18855 10.9796 3.17031 11.0433C3.15218 11.0979 3.14301 11.1525 3.13394 11.2072C3.13394 11.2162 3.12487 11.2253 3.12487 11.2253C3.10663 11.2891 3.10663 11.371 3.10663 11.4165C3.09757 11.4621 3.0885 11.5076 3.0885 11.5531C3.0885 11.5804 3.0885 11.6169 3.09757 11.6442C3.10663 11.6897 3.1157 11.7352 3.12487 11.7716C3.14301 11.8172 3.15218 11.8536 3.17031 11.8991V11.9082C3.18855 11.9537 3.21586 11.9901 3.24317 12.0356C3.27047 12.0812 3.29778 12.1176 3.33426 12.1631C3.37063 12.1995 3.40711 12.236 3.45266 12.2723C3.4981 12.3179 3.53447 12.3452 3.58002 12.3816C3.74397 12.5273 3.78941 12.5728 3.99879 12.6911L4.10813 12.7457C4.11719 12.7457 4.12626 12.7549 4.12626 12.7549C4.12626 12.773 4.12626 12.773 4.13543 12.7913C4.1445 12.8459 4.15357 12.9005 4.17181 12.9552C4.19001 13.0189 4.20822 13.0735 4.22642 13.1191C4.25373 13.1873 4.2629 13.201 4.28103 13.2465C4.29021 13.2647 4.29927 13.2738 4.29927 13.2829C4.32658 13.3375 4.35389 13.3832 4.38119 13.4377C4.41767 13.4832 4.45405 13.5379 4.48146 13.5834C4.51773 13.6289 4.55421 13.6744 4.59975 13.7108C4.64519 13.7564 4.68167 13.7837 4.72722 13.8292C4.72722 13.8292 4.73629 13.8383 4.74535 13.8383C4.7909 13.8747 4.82727 13.9112 4.87282 13.9385C4.91837 13.9748 4.97309 14.0021 5.02759 14.0295C5.07314 14.0568 5.12786 14.0841 5.19154 14.1023C5.23698 14.1204 5.28253 14.1387 5.32807 14.1479C5.33714 14.1569 5.34621 14.1569 5.35538 14.166C5.38269 14.1752 5.41906 14.1842 5.44637 14.1842C5.42823 14.5576 5.41906 14.9125 5.47367 15.04C5.53746 15.1765 5.83794 14.7578 6.14738 14.2661C6.10194 14.7487 6.07463 15.304 6.14738 15.477C6.22013 15.65 6.63911 15.1129 7.00327 14.512C11.9195 13.3739 16.4079 16.7698 16.8812 21.5769C16.7903 20.8303 15.8707 20.4115 15.4428 20.5117C15.2335 21.0216 14.8784 21.6861 14.3139 22.0958C14.3594 21.6405 14.3412 21.1672 14.241 20.7119C14.0864 21.3492 13.7859 21.9501 13.3852 22.46C12.7298 22.5055 12.0651 22.1869 11.7191 21.7134C11.6919 21.6953 11.6828 21.6497 11.6646 21.6224C11.6465 21.5769 11.6191 21.5221 11.61 21.4767C11.5918 21.4312 11.5735 21.3765 11.5644 21.331C11.5554 21.2855 11.5554 21.2309 11.5554 21.1763V21.0761C11.5644 21.0306 11.5735 20.976 11.5918 20.9305C11.61 20.8849 11.6191 20.8303 11.6373 20.7848C11.6646 20.7393 11.6827 20.6846 11.7192 20.6392C11.8376 20.3023 11.8376 20.0382 11.6191 19.8744C11.5735 19.8471 11.5371 19.8288 11.4916 19.8015C11.4643 19.7924 11.4279 19.7834 11.4006 19.7742C11.3824 19.7651 11.3641 19.7561 11.3459 19.7561C11.3004 19.7378 11.2458 19.7287 11.2003 19.7196C11.1547 19.7015 11.1001 19.7015 11.0546 19.7015C11.009 19.6923 10.9544 19.6832 10.8999 19.6832C10.8634 19.6832 10.827 19.6923 10.7996 19.6923C10.745 19.6923 10.6995 19.7013 10.645 19.7104C10.5994 19.7196 10.5447 19.7287 10.4993 19.7378C10.4537 19.756 10.399 19.7651 10.3536 19.7834C10.3081 19.8016 10.2626 19.8288 10.217 19.8471C10.1715 19.8653 10.1351 19.8926 10.0896 19.9199C8.46898 20.9759 9.4341 23.4432 10.5447 24.1534C10.1259 24.2261 9.70717 24.3172 9.58887 24.4083L9.57063 24.4265C9.86902 24.6084 10.1828 24.7637 10.5083 24.8908C10.9544 25.0365 11.4278 25.1639 11.6281 25.2276V25.2367C12.2018 25.3551 12.7844 25.4007 13.3762 25.3642C16.4443 25.1457 18.9662 22.8151 19.4214 19.7287C19.4395 19.7924 19.4487 19.8471 19.4668 19.9108C19.4851 20.0382 19.5124 20.1658 19.5306 20.3023V20.3114C19.5488 20.3751 19.5488 20.4388 19.5579 20.4935V20.5208C19.567 20.5845 19.5761 20.6482 19.5761 20.7028C19.5852 20.7757 19.5943 20.8576 19.5943 20.9305V21.0397C19.5943 21.0762 19.6035 21.1125 19.6035 21.1489C19.6035 21.1945 19.5943 21.2309 19.5943 21.2764V21.3767C19.5943 21.4221 19.5852 21.4676 19.5852 21.5132C19.5852 21.5405 19.5852 21.5678 19.5762 21.6042C19.5762 21.6497 19.567 21.7043 19.567 21.7589C19.5579 21.7771 19.5579 21.8045 19.5579 21.8226C19.5489 21.8773 19.5398 21.9229 19.5398 21.9866C19.5398 22.0047 19.5398 22.0321 19.5306 22.0503C19.5216 22.1231 19.5125 22.1777 19.5033 22.2506V22.2687C19.4852 22.3325 19.476 22.3963 19.4578 22.46V22.4781C19.4396 22.5419 19.4305 22.6057 19.4122 22.6693C19.4122 22.6785 19.4032 22.6875 19.4032 22.6967C19.385 22.7604 19.3759 22.8241 19.3576 22.8879V22.906C19.3395 22.9789 19.3121 23.0335 19.303 23.0973C19.2939 23.1064 19.2939 23.1154 19.2939 23.1154C19.2758 23.1883 19.2484 23.252 19.2302 23.3249C19.2028 23.3977 19.1847 23.4523 19.1573 23.5251C19.1299 23.598 19.1119 23.6617 19.0846 23.7255C19.0572 23.7983 19.0299 23.8529 19.0026 23.9258H18.9935C18.9662 23.9895 18.9388 24.0532 18.9025 24.1169C18.8933 24.1351 18.8842 24.1534 18.8842 24.1625C18.8752 24.1715 18.8752 24.1806 18.8661 24.1806C18.4108 25.0911 17.7461 25.8831 16.9177 26.5113C16.8631 26.5477 16.8085 26.5842 16.7539 26.6297C16.7356 26.6479 16.7174 26.6479 16.7083 26.6661C16.6603 26.7047 16.6084 26.7383 16.5536 26.7663L16.5717 26.8117H16.5809C16.681 26.7936 16.772 26.7844 16.8722 26.7663H16.8812C17.0634 26.739 17.2455 26.7025 17.4184 26.666C17.464 26.657 17.5187 26.6479 17.5732 26.6298C17.6097 26.6206 17.637 26.6115 17.6735 26.6115C17.7189 26.6024 17.7735 26.5933 17.8191 26.5842C17.8646 26.566 17.901 26.566 17.9465 26.5477C18.6384 26.3839 19.3121 26.1563 19.9585 25.8832C18.8569 27.3853 17.382 28.6053 15.6522 29.3973C16.4533 29.3429 17.2465 29.2056 18.0193 28.9877C20.8144 28.1592 23.1632 26.2837 24.5744 23.7528C24.2921 25.3551 23.6549 26.8846 22.708 28.2139C23.3817 27.7677 24.0008 27.2579 24.5561 26.6752C26.1129 25.0546 27.1327 22.988 27.4786 20.7757C27.7154 21.8682 27.7881 23.0062 27.6789 24.1169C32.6863 17.134 28.0977 9.88705 26.1767 7.98422C26.1676 7.96609 26.1586 7.96609 26.1586 7.94785C26.1494 7.95692 26.1494 7.95692 26.1494 7.96598C26.1494 7.95692 26.1494 7.95692 26.1402 7.94785C26.1402 8.02977 26.1312 8.11169 26.1221 8.19361C26.104 8.35756 26.0766 8.50316 26.0492 8.65793C26.0129 8.8127 25.9764 8.96748 25.9308 9.11318C25.8853 9.25889 25.8308 9.41366 25.767 9.55926C25.7033 9.6958 25.6395 9.8415 25.5576 9.97804C25.481 10.1118 25.399 10.2424 25.3118 10.3695C25.2208 10.4971 25.1206 10.6244 25.0296 10.7428C24.9294 10.8703 24.8111 10.9796 24.7018 11.0888C24.629 11.1525 24.5744 11.2072 24.5015 11.2618C24.4469 11.3073 24.4014 11.3529 24.3377 11.3983C24.2102 11.4986 24.0918 11.5896 23.9462 11.6714C23.8187 11.7535 23.6731 11.8353 23.5365 11.9082C23.3908 11.981 23.2452 12.0356 23.0995 12.0993C22.9538 12.154 22.799 12.1996 22.6442 12.245C22.4895 12.2905 22.3347 12.3179 22.1799 12.3452C22.0232 12.3718 21.8652 12.39 21.7065 12.3998C21.5973 12.4089 21.4881 12.4179 21.3697 12.4179C21.2058 12.4179 21.0511 12.3998 20.8963 12.3907C20.7323 12.3725 20.5776 12.3543 20.4228 12.3179C20.259 12.2906 20.1132 12.245 19.9585 12.1995H19.9494C20.1042 12.1813 20.259 12.1722 20.4047 12.1449C20.5685 12.1176 20.7142 12.0812 20.869 12.0447C21.0236 11.9993 21.1785 11.9537 21.3241 11.8991C21.4789 11.8445 21.6246 11.7716 21.7611 11.7079C21.9068 11.6351 22.0342 11.5623 22.1799 11.4803C22.3074 11.3892 22.444 11.2983 22.5714 11.2072C22.6988 11.107 22.8172 11.0068 22.9266 10.8976C23.0449 10.7975 23.145 10.6792 23.2543 10.5608C23.3544 10.4333 23.4546 10.3149 23.5456 10.1874C23.5637 10.1693 23.5729 10.142 23.5911 10.1147C23.6631 10.0056 23.73 9.89319 23.7914 9.77782C23.8642 9.64129 23.937 9.50476 24.0008 9.35905C24.0646 9.21334 24.1192 9.06764 24.1647 8.91286C24.2102 8.76726 24.2466 8.61249 24.2831 8.45772C24.3104 8.29377 24.3377 8.14817 24.3558 7.9934C24.3741 7.82945 24.3832 7.67468 24.3832 7.5199C24.3832 7.41068 24.3741 7.30145 24.365 7.18305C24.3468 7.01921 24.3285 6.8735 24.3104 6.71873C24.2831 6.55489 24.2466 6.40918 24.2101 6.25452C24.1647 6.10881 24.11 5.95404 24.0554 5.80833C24.0008 5.66262 23.928 5.51702 23.8642 5.38049C23.7914 5.24396 23.7095 5.10742 23.6275 4.97078L23.3544 4.58838C23.2542 4.46998 23.145 4.35158 23.0357 4.23329C22.9811 4.17868 22.9173 4.11489 22.8536 4.06038C22.5441 3.81452 22.2164 3.58689 21.8886 3.3775C21.8431 3.3502 21.7976 3.33206 21.7521 3.30465C21.5335 3.14081 21.3241 3.06806 21.1057 2.99521Z" fill="#FF1744"/>
</svg>
