<svg width="27" height="32" viewBox="0 0 27 32" fill="none" xmlns="http://www.w3.org/2000/svg">
<g clip-path="url(#clip0_13_443)">
<path d="M26.7688 24.3117L15.7945 1.00637C15.6582 0.719588 15.4469 0.475012 15.1829 0.298528C14.9189 0.122045 14.6121 0.0202213 14.295 0.00383667C13.9773 -0.0174544 13.6598 0.0487738 13.3771 0.195319C13.0944 0.341863 12.8573 0.563115 12.6916 0.835011L0.788922 20.1134C0.607997 20.4045 0.513779 20.7411 0.517308 21.0838C0.520836 21.4266 0.621964 21.7612 0.808845 22.0485L6.6281 31.0602C6.84825 31.3985 7.17187 31.6566 7.55069 31.7959C7.9295 31.9352 8.34321 31.9483 8.73008 31.8333L25.6177 26.838C25.872 26.7637 26.1074 26.6356 26.3079 26.4625C26.5084 26.2893 26.6694 26.0752 26.78 25.8344C26.8891 25.595 26.9447 25.3346 26.9429 25.0715C26.9411 24.8084 26.882 24.5488 26.7696 24.3108L26.7688 24.3117ZM24.3118 25.3112L9.9817 29.5486C9.54454 29.6787 9.12492 29.2997 9.21586 28.8585L14.3357 4.34407C14.4313 3.88544 15.0647 3.81277 15.265 4.23723L24.7426 24.3635C24.7845 24.4531 24.8064 24.5508 24.8069 24.6498C24.8074 24.7488 24.7864 24.8467 24.7454 24.9368C24.7044 25.0269 24.6443 25.107 24.5693 25.1716C24.4943 25.2362 24.4062 25.2838 24.3111 25.3111L24.3118 25.3112Z" fill="black"/>
</g>
<defs>
<clipPath id="clip0_13_443">
<rect width="26.43" height="32" fill="white" transform="translate(0.515015)"/>
</clipPath>
</defs>
</svg>
