<svg width="36" height="32" viewBox="0 0 36 32" fill="none" xmlns="http://www.w3.org/2000/svg">
<g clip-path="url(#clip0_13_109)">
<path d="M29.5992 10.3612C29.216 10.2301 28.8297 10.1085 28.4404 9.99675C28.5058 9.73008 28.566 9.46664 28.6194 9.20784C29.4967 4.95787 28.9232 1.53401 26.9644 0.406712C25.0864 -0.673989 22.015 0.452888 18.9131 3.1472C18.6074 3.41321 18.3084 3.68688 18.0166 3.96798C17.8212 3.78107 17.6224 3.59779 17.4202 3.41822C14.1692 0.537379 10.9107 -0.676796 8.95402 0.45373C7.07766 1.5378 6.52205 4.75647 7.3118 8.78426C7.39037 9.18317 7.47909 9.58002 7.57786 9.97443C7.11661 10.1052 6.67153 10.2445 6.24558 10.3927C2.43408 11.719 0 13.7974 0 15.9534C0 18.18 2.61309 20.4135 6.58294 21.7677C6.90479 21.877 7.22931 21.9783 7.5562 22.0716C7.45007 22.4964 7.35582 22.924 7.27355 23.3541C6.52064 27.312 7.10859 30.4546 8.97989 31.5318C10.9126 32.6442 14.1566 31.5009 17.3152 28.7451C17.5713 28.521 17.8217 28.2907 18.0664 28.0542C18.3824 28.3585 18.7069 28.654 19.0395 28.9403C22.0992 31.568 25.121 32.629 26.9904 31.5489C28.9214 30.4332 29.549 27.0572 28.7342 22.9499C28.67 22.6281 28.598 22.3079 28.5183 21.9896C28.7461 21.9222 28.9697 21.8529 29.1877 21.7807C33.3148 20.4161 36 18.2098 36 15.9534C36 13.7896 33.4873 11.6971 29.5992 10.3612ZM28.7041 20.3239C28.507 20.3888 28.3055 20.4518 28.0994 20.5127C27.6438 19.0731 27.029 17.5424 26.2765 15.9608C26.9945 14.417 27.5857 12.9058 28.0285 11.4756C28.3968 11.582 28.7542 11.6942 29.0987 11.8125C32.4301 12.9572 34.4621 14.6494 34.4621 15.9534C34.4621 17.3423 32.2675 19.1454 28.7041 20.3239ZM27.2256 23.248C27.5858 25.0641 27.6372 26.7062 27.3985 27.99C27.1842 29.1436 26.7531 29.9125 26.2198 30.2206C25.0854 30.876 22.6592 30.0241 20.0426 27.7768C19.7333 27.5106 19.4314 27.2359 19.1374 26.953C20.1518 25.8457 21.1656 24.5586 22.155 23.129C23.8954 22.9749 25.5396 22.7228 27.0307 22.3788C27.1042 22.6746 27.1692 22.9644 27.2256 23.248ZM12.2732 30.1073C11.1648 30.4979 10.2819 30.5092 9.74827 30.2021C8.61272 29.5485 8.14064 27.0251 8.78456 23.6404C8.86111 23.2404 8.94876 22.8427 9.04739 22.4476C10.522 22.7732 12.1542 23.0073 13.8987 23.1485C14.8949 24.5473 15.9379 25.8331 16.989 26.959C16.7656 27.1747 16.537 27.3849 16.3032 27.5895C14.9064 28.808 13.5068 29.6725 12.2732 30.1073ZM7.08047 20.3153C5.32505 19.7165 3.87534 18.9382 2.88169 18.089C1.98872 17.3259 1.53802 16.5681 1.53802 15.9534C1.53802 14.645 3.49228 12.9763 6.75183 11.8421C7.14741 11.7045 7.56141 11.5747 7.99102 11.4529C8.44158 12.9153 9.03249 14.4445 9.74559 15.9907C9.0232 17.5598 8.42386 19.1134 7.96894 20.5931C7.67055 20.5078 7.37431 20.4152 7.08047 20.3153ZM8.82113 8.48938C8.14458 5.03857 8.59387 2.43548 9.72464 1.78215C10.929 1.08629 13.5921 2.07843 16.3991 4.56601C16.5822 4.72858 16.7622 4.89446 16.9393 5.06355C15.8933 6.18454 14.8598 7.46075 13.8725 8.85134C12.1794 9.00798 10.5587 9.25948 9.06862 9.59647C8.9768 9.22962 8.89427 8.86038 8.82113 8.48938ZM24.3499 12.3166C23.998 11.7099 23.633 11.1108 23.2552 10.5197C24.4038 10.6647 25.5043 10.8571 26.5378 11.0923C26.2275 12.0849 25.8408 13.1225 25.3856 14.1864C25.0529 13.5563 24.7076 12.9329 24.3499 12.3166ZM18.0173 6.16068C18.7266 6.92769 19.437 7.78398 20.1358 8.7131C18.7183 8.64628 17.2984 8.64599 15.8809 8.71226C16.5804 7.79169 17.2969 6.93654 18.0173 6.16068ZM11.644 12.327C11.2908 12.9383 10.952 13.5578 10.6277 14.185C10.18 13.1249 9.79678 12.0825 9.48389 11.0759C10.511 10.8466 11.6063 10.6591 12.7477 10.5167C12.3657 11.1114 11.9977 11.7151 11.644 12.327ZM12.7804 21.4991C11.6013 21.3677 10.4895 21.1899 9.46266 20.9667C9.78047 19.9422 10.1721 18.8776 10.6296 17.7948C10.9551 18.4224 11.2953 19.0422 11.6501 19.6539C12.0149 20.2826 12.3926 20.8985 12.7804 21.4991ZM18.0598 25.8542C17.3308 25.0693 16.6037 24.201 15.8937 23.2671C16.5831 23.294 17.2858 23.3078 18 23.3078C18.7338 23.3078 19.4591 23.2913 20.1731 23.2596C19.4721 24.2104 18.7643 25.08 18.0598 25.8542ZM25.4001 17.7395C25.8813 18.8342 26.2869 19.8932 26.6089 20.9002C25.5652 21.1379 24.4382 21.3294 23.2508 21.4716C23.6313 20.8695 23.9998 20.26 24.356 19.6433C24.7181 19.0165 25.0663 18.3818 25.4001 17.7395ZM23.0238 18.8765C22.4785 19.8219 21.9025 20.7494 21.2968 21.6575C20.1996 21.7351 19.1 21.7737 18 21.773C16.8796 21.773 15.7899 21.7382 14.7406 21.6703C14.119 20.7643 13.5321 19.8352 12.981 18.8849C12.4324 17.9397 11.9201 16.974 11.445 15.9899C11.9189 15.0056 12.4297 14.0394 12.9765 13.0934L12.9763 13.0936C13.5227 12.1474 14.105 11.2222 14.7219 10.3201C15.7925 10.2393 16.8903 10.1972 17.9999 10.1972C19.1145 10.1972 20.2139 10.2397 21.2842 10.3211C21.8948 11.2218 22.4734 12.1438 23.0188 13.0853C23.5672 14.0292 24.0848 14.9907 24.5707 15.9681C24.0898 16.9556 23.5738 17.9256 23.0238 18.8765ZM26.1963 1.73626C27.4018 2.43015 27.8706 5.22833 27.1132 8.8978C27.0646 9.13209 27.0107 9.37022 26.9515 9.61219C25.4578 9.26805 23.8359 9.01219 22.1379 8.85317C21.1487 7.44727 20.1237 6.1691 19.0948 5.06257C19.3644 4.80314 19.6405 4.55043 19.9228 4.30468C22.5806 1.99633 25.0646 1.08489 26.1963 1.73626ZM18 12.745C19.7754 12.745 21.2147 14.1814 21.2147 15.9534C21.2147 17.7253 19.7754 19.1618 18 19.1618C16.2246 19.1618 14.7853 17.7253 14.7853 15.9534C14.7853 14.1814 16.2246 12.745 18 12.745Z" fill="#00D8FF"/>
</g>
<defs>
<clipPath id="clip0_13_109">
<rect width="36" height="32" fill="white"/>
</clipPath>
</defs>
</svg>
