<svg width="37" height="32" viewBox="0 0 37 32" fill="none" xmlns="http://www.w3.org/2000/svg">
<g clip-path="url(#clip0_13_436)">
<path d="M22.8761 19.8243L22.193 21.0107C22.0919 21.1862 21.9462 21.332 21.7708 21.4334C21.5954 21.5348 21.3964 21.5882 21.1938 21.5882H15.96C15.7574 21.5882 15.5583 21.5348 15.3829 21.4334C15.2075 21.332 15.0619 21.1862 14.9607 21.0107L14.2775 19.8243H22.8761ZM24.7888 16.5032L23.5842 18.5949H13.5696L12.365 16.5032H24.7888ZM23.6284 13.2557L24.7907 15.2739H12.363L13.5253 13.2557H23.6284ZM21.1936 10.1856C21.3963 10.1856 21.5953 10.239 21.7708 10.3404C21.9462 10.4418 22.0919 10.5876 22.193 10.7631L22.9204 12.0263H14.2334L14.9609 10.7631C15.062 10.5876 15.2077 10.4418 15.3831 10.3404C15.5585 10.239 15.7575 10.1856 15.9601 10.1856H21.1936Z" fill="#00435B"/>
<path d="M8.34305 9.63503C7.76329 6.82376 7.63877 4.66752 8.01359 3.10189C8.23647 2.17069 8.64385 1.41103 9.26353 0.86286C9.91772 0.284217 10.7447 0.000251399 11.6741 0.000251399C13.207 0.000251399 14.8187 0.699382 16.5409 2.02738C17.2435 2.56916 17.9725 3.22209 18.7297 3.98662C18.7901 3.90912 18.8581 3.83594 18.9341 3.76818C21.0747 1.8607 22.877 0.675312 24.4186 0.218408C25.3352 -0.0534529 26.1957 -0.0793312 26.9793 0.18446C27.8066 0.462721 28.4656 1.0383 28.9307 1.84429C29.6982 3.17451 29.9005 4.92241 29.6144 7.08074C29.4978 7.96046 29.2985 8.91865 29.0167 9.95698C29.123 9.96978 29.2296 9.99343 29.335 10.0284C32.051 10.9285 33.9743 11.8963 35.1387 13.0025C35.8316 13.6606 36.2839 14.3933 36.4475 15.2044C36.6201 16.0605 36.4517 16.9191 35.9873 17.7245C35.2212 19.0529 33.8127 20.1004 31.8061 20.9302C31.0006 21.2634 30.0889 21.5652 29.0703 21.8366C29.1168 21.9415 29.1529 22.053 29.177 22.1698C29.7568 24.9811 29.8811 27.1374 29.5065 28.703C29.2836 29.6342 28.8761 30.3938 28.2564 30.942C27.6023 31.5207 26.7752 31.8046 25.8459 31.8046C24.3129 31.8046 22.7013 31.1055 20.9792 29.7775C20.269 29.2299 19.5319 28.5689 18.766 27.7938C18.6854 27.9198 18.5879 28.0341 18.4761 28.1335C16.3354 30.0413 14.5331 31.2264 12.9915 31.6835C12.0749 31.9553 11.2144 31.9812 10.4308 31.7174C9.60357 31.4391 8.94451 30.8636 8.47939 30.0576C7.71195 28.7273 7.50966 26.9794 7.79571 24.8211C7.91661 23.9097 8.12628 22.9138 8.4243 21.8319C8.3055 21.8199 8.1884 21.7948 8.07508 21.7572C5.35912 20.857 3.43578 19.8892 2.27139 18.783C1.57853 18.1249 1.12621 17.3923 0.962595 16.5811C0.790073 15.7251 0.958421 14.8663 1.42284 14.0609C2.18889 12.7326 3.59745 11.685 5.60399 10.8553C6.43362 10.5121 7.37567 10.2024 8.43112 9.9247C8.39305 9.83101 8.36357 9.73406 8.34305 9.63503Z" fill="#002B3B"/>
<path d="M27.282 22.4463C27.4117 22.4234 27.5452 22.4511 27.6549 22.5239C27.7645 22.5967 27.842 22.7089 27.8712 22.8373L27.8744 22.8529L27.9032 23.0024C28.8368 27.9105 28.1792 30.3645 25.9304 30.3645C23.7303 30.3645 20.9295 28.2705 17.528 24.0824C17.4676 24.0079 17.4292 23.918 17.4173 23.8229C17.4055 23.7278 17.4205 23.6312 17.4607 23.5442C17.501 23.4571 17.5648 23.3832 17.645 23.3306C17.7252 23.2781 17.8185 23.249 17.9144 23.2469H17.9302L18.1094 23.2481C19.5408 23.2559 20.9323 23.206 22.2839 23.0984C23.8793 22.9714 25.5453 22.754 27.282 22.4463ZM11.8384 18.7363L11.847 18.7509L11.9369 18.9077C12.6571 20.1599 13.4075 21.3484 14.188 22.4732C15.1074 23.7977 16.1412 25.1386 17.2893 26.496C17.3745 26.5967 17.4176 26.7264 17.4096 26.8581C17.4016 26.9899 17.3431 27.1134 17.2463 27.2031L17.2333 27.2146L17.1179 27.3141C13.3187 30.5694 10.8494 31.2192 9.71 29.2636C8.59463 27.3495 8.99899 23.8691 10.9231 18.8223C10.9571 18.7328 11.0156 18.6548 11.0917 18.5968C11.1679 18.5389 11.2587 18.5035 11.354 18.4945C11.4493 18.4856 11.5451 18.5035 11.6307 18.5462C11.7164 18.5889 11.7883 18.6548 11.8384 18.7363ZM29.2098 11.494L29.2254 11.4991L29.3684 11.5484C34.0578 13.1797 35.8394 14.9724 34.7133 16.9265C33.6119 18.8377 30.41 20.2291 25.1076 21.1009C25.0115 21.1168 24.9128 21.1049 24.8233 21.0666C24.7337 21.0284 24.6568 20.9655 24.6018 20.8852C24.5467 20.8048 24.5156 20.7105 24.5122 20.6132C24.5088 20.5158 24.5333 20.4195 24.5826 20.3356C25.3421 19.0437 26.0261 17.7583 26.6347 16.4793C27.3247 15.0288 27.9724 13.472 28.5776 11.8087C28.6216 11.6878 28.7094 11.5879 28.8236 11.5287C28.9378 11.4696 29.0701 11.4555 29.1942 11.4894L29.2098 11.494ZM12.6454 10.6727C12.7034 10.7068 12.7542 10.752 12.7947 10.8057C12.8353 10.8594 12.8649 10.9205 12.8818 10.9857C12.8987 11.0508 12.9027 11.1187 12.8934 11.1853C12.8841 11.252 12.8617 11.3162 12.8276 11.3742C12.068 12.666 11.3839 13.9514 10.7755 15.2305C10.0854 16.6809 9.43772 18.2377 8.8325 19.9011C8.78757 20.0246 8.6969 20.1261 8.57925 20.1847C8.46159 20.2433 8.32593 20.2544 8.20029 20.2158L8.18471 20.2106L8.04168 20.1612C3.35234 18.53 1.57073 16.7373 2.69685 14.7833C3.79821 12.8721 7.00011 11.4806 12.3026 10.6087C12.4208 10.5892 12.5421 10.6119 12.6454 10.6727ZM27.7001 2.63805C28.8155 4.55221 28.4111 8.03269 26.487 13.0795C26.453 13.1689 26.3946 13.247 26.3184 13.3049C26.2422 13.3629 26.1514 13.3983 26.0561 13.4073C25.9609 13.4162 25.865 13.3983 25.7794 13.3556C25.6938 13.3128 25.6218 13.247 25.5717 13.1655L25.5631 13.1509L25.4732 12.9941C24.753 11.7419 24.0026 10.5534 23.2221 9.42859C22.3027 8.10407 21.269 6.76313 20.1208 5.40577C20.0356 5.30504 19.9925 5.17532 20.0005 5.04362C20.0086 4.91192 20.067 4.78838 20.1638 4.69871L20.1768 4.68716L20.2923 4.58768C24.0914 1.3325 26.5607 0.682618 27.7001 2.63805ZM11.672 1.47339C13.8722 1.47339 16.673 3.56739 20.0744 7.75541C20.1348 7.82984 20.1731 7.91974 20.185 8.01487C20.1969 8.11001 20.1819 8.20658 20.1417 8.2936C20.1014 8.38062 20.0376 8.45461 19.9574 8.50716C19.8772 8.55971 19.7839 8.58872 19.688 8.59088H19.6722L19.493 8.58977C18.0617 8.58198 16.6702 8.63188 15.3186 8.73948C13.7231 8.86655 12.057 9.08392 10.3204 9.39158C10.1908 9.41451 10.0573 9.38671 9.94763 9.31392C9.83796 9.24114 9.7605 9.12896 9.73128 9.00062L9.72794 8.9849L9.69914 8.83548C8.76549 3.92742 9.42311 1.47339 11.672 1.47339Z" fill="#FF4154"/>
<path d="M16.3809 10.2498H20.774C21.0897 10.2497 21.3997 10.333 21.6729 10.4912C21.946 10.6494 22.1726 10.8769 22.3297 11.1506L24.5356 14.9942C24.6915 15.2659 24.7736 15.5738 24.7736 15.887C24.7736 16.2003 24.6915 16.5081 24.5356 16.7798L22.3297 20.6235C22.1726 20.8972 21.946 21.1247 21.6729 21.2829C21.3997 21.4411 21.0897 21.5243 20.774 21.5243H16.3809C15.7384 21.5243 15.145 21.1807 14.8251 20.6235L12.6195 16.7798C12.4635 16.5081 12.3814 16.2003 12.3814 15.887C12.3814 15.5738 12.4635 15.2659 12.6195 14.9942L14.8252 11.1506C14.9823 10.8768 15.2089 10.6494 15.4821 10.4912C15.7553 10.333 16.0652 10.2497 16.3809 10.2498ZM20.1046 11.4098C20.7473 11.4098 21.3411 11.7539 21.6607 12.3115L23.199 14.9951C23.3546 15.2666 23.4365 15.5741 23.4365 15.887C23.4365 16.2 23.3546 16.5075 23.199 16.779L21.6607 19.4626C21.5037 19.7365 21.2771 19.9642 21.0038 20.1225C20.7306 20.2808 20.4204 20.3642 20.1046 20.3641H17.0506C16.4079 20.3641 15.814 20.0202 15.4945 19.4626L13.9562 16.779C13.8006 16.5075 13.7187 16.2 13.7187 15.887C13.7187 15.5741 13.8006 15.2666 13.9562 14.9951L15.4945 12.3115C15.6515 12.0376 15.8781 11.8099 16.1513 11.6516C16.4245 11.4933 16.7347 11.4099 17.0505 11.41L20.1046 11.4098ZM19.3829 12.6787H17.7723C17.4568 12.6787 17.1468 12.7619 16.8738 12.9199C16.6007 13.078 16.3741 13.3053 16.217 13.5789L15.4042 14.9934C15.2479 15.2653 15.1657 15.5734 15.1657 15.887C15.1657 16.2007 15.2479 16.5088 15.4042 16.7807L16.217 18.1954C16.3741 18.469 16.6007 18.6963 16.8738 18.8543C17.1468 19.0124 17.4568 19.0956 17.7723 19.0955H19.3829C20.0251 19.0955 20.6184 18.7522 20.9382 18.1954L21.751 16.7807C21.9073 16.5088 21.9895 16.2007 21.9895 15.887C21.9895 15.5734 21.9073 15.2653 21.751 14.9934L20.9382 13.5787C20.7811 13.3051 20.5545 13.0778 20.2814 12.9198C20.0084 12.7617 19.6984 12.6787 19.3829 12.6787ZM18.6881 13.893C19.3297 13.893 19.9226 14.2358 20.2426 14.7918L20.3579 14.9922C20.5146 15.2643 20.5971 15.5729 20.5971 15.8869C20.5971 16.2009 20.5146 16.5095 20.3579 16.7817L20.2426 16.982C20.0853 17.2552 19.8588 17.4822 19.5859 17.64C19.313 17.7977 19.0033 17.8808 18.6881 17.8808H18.4671C18.1519 17.8808 17.8422 17.7977 17.5693 17.64C17.2964 17.4822 17.0699 17.2552 16.9126 16.982L16.7973 16.7817C16.6406 16.5095 16.5581 16.2009 16.5581 15.8869C16.5581 15.5729 16.6406 15.2643 16.7973 14.9922L16.9126 14.7918C17.0699 14.5186 17.2964 14.2916 17.5693 14.1339C17.8422 13.9761 18.1519 13.893 18.4671 13.893H18.6881ZM18.5779 15.0894C18.4378 15.0894 18.3001 15.1262 18.1787 15.1962C18.0574 15.2662 17.9565 15.3669 17.8864 15.4882C17.8164 15.6094 17.7795 15.7469 17.7795 15.8869C17.7795 16.0269 17.8164 16.1644 17.8864 16.2857C17.9565 16.407 18.0572 16.5077 18.1786 16.5777C18.2999 16.6478 18.4376 16.6846 18.5777 16.6846C18.7178 16.6846 18.8554 16.6478 18.9767 16.5777C19.0981 16.5077 19.1989 16.407 19.2689 16.2857C19.339 16.1644 19.3758 16.0269 19.3758 15.8869C19.3758 15.7469 19.339 15.6094 19.2689 15.4882C19.1988 15.3669 19.0981 15.2663 18.9768 15.1963C18.8555 15.1263 18.7179 15.0894 18.5779 15.0894ZM12.1071 15.8869H13.5429H12.1071Z" fill="#FFD94C"/>
</g>
<defs>
<clipPath id="clip0_13_436">
<rect width="35.62" height="32" fill="white" transform="translate(0.89502)"/>
</clipPath>
</defs>
</svg>
