<svg width="32" height="32" viewBox="0 0 32 32" fill="none" xmlns="http://www.w3.org/2000/svg">
<path d="M21.7607 0C20.1382 0 18.0144 1.1565 15.8672 3.16225C13.7197 1.16825 11.5962 0.0235 9.97394 0.0235V0.02925C9.47845 0.02925 9.02994 0.13575 8.64044 0.36C6.98294 1.3155 6.61144 4.29475 7.46669 8.03475C3.79744 9.16725 1.40819 10.9785 1.40819 12.8897C1.40819 14.8072 3.80919 16.6238 7.49019 17.7502C6.64069 21.5023 7.01844 24.487 8.68219 25.4428C9.06544 25.6668 9.51369 25.7733 10.0092 25.7733C11.6317 25.7733 13.7554 24.6168 15.9027 22.6112C18.0502 24.605 20.1737 25.75 21.7959 25.75C22.2909 25.75 22.7394 25.6438 23.1289 25.4195C24.7864 24.4638 25.1582 21.4845 24.3027 17.7445C27.9602 16.618 30.3494 14.8012 30.3494 12.8895C30.3494 10.9727 27.9487 9.15575 24.2674 8.029C25.1169 4.27725 24.7392 1.2925 23.0757 0.33675C22.6939 0.11325 22.2474 0.00725 21.7607 0.0065V0ZM21.7544 1.316V1.32125C22.0257 1.32125 22.2444 1.3745 22.4269 1.47475C23.2294 1.93475 23.5774 3.68725 23.3062 5.9405C23.2412 6.495 23.1352 7.079 23.0052 7.67475C21.8489 7.39175 20.5864 7.1735 19.2592 7.03175C18.4629 5.9405 17.6367 4.94925 16.8052 4.08175C18.7252 2.298 20.5274 1.3195 21.7544 1.316ZM9.97394 1.339C11.1952 1.339 13.0059 2.31225 14.9289 4.088C14.0505 5.01237 13.2365 5.99593 12.4927 7.03175C11.1594 7.1735 9.89769 7.39175 8.74119 7.68075C8.61089 7.11578 8.50835 6.54476 8.43394 5.96975C8.15694 3.71625 8.49894 1.96475 9.29544 1.4985C9.47219 1.3925 9.70294 1.34525 9.97394 1.34525V1.339ZM15.8614 5.014C16.4402 5.61471 16.9876 6.24488 17.5014 6.902C16.961 6.87631 16.42 6.86264 15.8789 6.861C15.3242 6.861 14.7759 6.8725 14.2392 6.902C14.7454 6.24394 15.2869 5.61376 15.8612 5.01425L15.8614 5.014ZM15.8789 8.18225C16.7697 8.18225 17.6607 8.22375 18.5337 8.2945C19.0399 9.02197 19.5161 9.76985 19.9612 10.5363C20.4038 11.3008 20.8133 12.084 21.1884 12.8837C20.8131 13.6843 20.4056 14.4694 19.9672 15.2373C19.5072 16.0335 19.0347 16.789 18.5454 17.491C17.6662 17.5677 16.7754 17.6085 15.8789 17.6085C14.9879 17.6085 14.0974 17.5677 13.2244 17.497C12.7183 16.7696 12.242 16.0218 11.7969 15.2555C11.3543 14.4907 10.9448 13.7073 10.5697 12.9073C10.9427 12.1056 11.3502 11.3203 11.7909 10.5538C12.2509 9.7575 12.7227 9.00225 13.2124 8.30025C14.0992 8.22234 14.9888 8.18297 15.8789 8.18225ZM11.4954 8.48875C11.2064 8.943 10.9179 9.40875 10.6464 9.88675C10.3795 10.3525 10.1237 10.8247 9.87945 11.3027C9.56975 10.5341 9.29809 9.75063 9.06544 8.95525C9.83794 8.77225 10.6519 8.61275 11.4954 8.48875ZM20.2504 8.48875C21.0879 8.61275 21.8959 8.76625 22.6689 8.95525C22.4504 9.71625 22.1789 10.5002 21.8724 11.2852C21.6284 10.8059 21.3707 10.3337 21.0994 9.86925C20.8282 9.39725 20.5394 8.93725 20.2504 8.48875ZM23.9429 9.30325C24.5047 9.47763 25.058 9.67835 25.6009 9.90475C27.6892 10.7955 29.0399 11.9635 29.0399 12.8897C29.0339 13.816 27.6829 14.9897 25.5947 15.8748C25.0872 16.0928 24.5332 16.2878 23.9609 16.4705C23.6247 15.3145 23.1819 14.1105 22.6334 12.878C23.1759 11.651 23.6124 10.4538 23.9427 9.303L23.9429 9.30325ZM7.79094 9.30925C8.12719 10.4653 8.56994 11.6685 9.11844 12.9015C8.57594 14.1285 8.13919 15.3263 7.80894 16.4765C7.24888 16.3029 6.69764 16.1019 6.15719 15.8745C4.06894 14.9838 2.71769 13.816 2.71769 12.8895C2.71769 11.9635 4.06894 10.7895 6.15719 9.9045C6.66469 9.6865 7.21869 9.492 7.79094 9.30925ZM15.8729 10.194C14.3842 10.194 13.1772 11.4007 13.1772 12.8897C13.1772 14.3787 14.3842 15.5855 15.8729 15.5855C17.3619 15.5855 18.5687 14.3787 18.5687 12.8897C18.5687 11.4007 17.3619 10.194 15.8729 10.194ZM21.8724 14.4707C22.1821 15.2394 22.4538 16.0229 22.6864 16.8183C21.8842 17.0135 21.0734 17.1712 20.2564 17.2908C20.551 16.8317 20.8341 16.3654 21.1054 15.8923C21.3725 15.4247 21.6282 14.9507 21.8724 14.4707ZM9.87945 14.4943C10.1234 14.9736 10.3811 15.4458 10.6522 15.9102C10.926 16.3761 11.2094 16.8362 11.5022 17.2903C10.6647 17.1665 9.85569 17.0127 9.08294 16.824C9.30119 16.063 9.57294 15.279 9.87945 14.4943ZM23.0169 18.0925C23.1527 18.6885 23.2587 19.2607 23.3237 19.8095C23.6007 22.0627 23.2587 23.8145 22.4624 24.2805C22.2854 24.3868 22.0557 24.4345 21.7842 24.4345C20.5629 24.4345 18.7517 23.461 16.8284 21.6852C17.7074 20.7612 18.5216 19.7776 19.2652 18.7415C20.5982 18.6 21.8609 18.3815 23.0169 18.0925ZM8.75294 18.1042C9.90919 18.3875 11.1712 18.6057 12.4984 18.7472C13.2947 19.8387 14.1209 20.8298 14.9527 21.6973C13.0294 23.4848 11.2244 24.4638 9.99769 24.4638C9.73219 24.4578 9.50795 24.4048 9.33095 24.3045C8.5287 23.8445 8.18094 22.0923 8.45219 19.8388C8.51719 19.2843 8.62294 18.7003 8.75294 18.1042ZM14.2509 18.8773C14.7819 18.9008 15.3244 18.9182 15.8729 18.9182C16.4274 18.9182 16.9762 18.9067 17.5129 18.8773C17.0066 19.5352 16.465 20.1653 15.8904 20.7647C15.3419 20.1985 14.7937 19.5673 14.2509 18.8773ZM24.8484 28.1068C24.7548 28.1069 24.6837 28.1339 24.6352 28.1877C24.5885 28.2418 24.5651 28.3077 24.5649 28.3855C24.5649 28.4635 24.5883 28.5285 24.6349 28.5805C24.6836 28.6323 24.7549 28.6583 24.8487 28.6585C24.9894 28.6588 25.0134 28.6322 25.0619 28.5805C25.1107 28.5275 25.1367 28.4575 25.1344 28.3855C25.1344 28.3075 25.1103 28.2417 25.0619 28.188C25.0133 28.1338 24.9419 28.1068 24.8484 28.1068ZM1.33044 28.1593V31.9475H1.83244V30.415H2.72244L3.54494 31.9475H4.08094V31.9163L3.19094 30.3085C3.41828 30.2217 3.59519 30.0906 3.72169 29.9153C3.85003 29.7403 3.91419 29.5347 3.91419 29.2987C3.91436 28.9274 3.79903 28.6447 3.56819 28.4505C3.33936 28.2562 3.01144 28.159 2.58444 28.159L1.33044 28.1593ZM16.1962 28.1593V31.9475H16.6987V29.0282L18.6059 31.9475H19.1084V28.1593H18.6109V31.0917L16.6987 28.1593H16.1962ZM13.2274 28.4505V29.1322H12.7149V29.5042H13.2274V31.2502C13.2274 31.4897 13.2819 31.6745 13.3909 31.8045C13.5006 31.9345 13.6629 31.9996 13.8779 31.9998C13.9979 31.9998 14.1211 31.9823 14.2474 31.9475V31.5575C14.1503 31.5783 14.0739 31.5888 14.0184 31.5888C13.9058 31.5888 13.826 31.5609 13.7792 31.5053C13.7325 31.4479 13.7092 31.3629 13.7092 31.2502V29.5042H14.2342V29.1322H13.7092V28.4505H13.2274ZM22.9907 28.4505V29.1322H22.4779V29.5042H22.9904V31.2502C22.9906 31.4897 23.0453 31.6745 23.1544 31.8045C23.2638 31.9345 23.4259 31.9996 23.6407 31.9998C23.7607 31.9998 23.8839 31.9823 24.0104 31.9475V31.5575C23.9131 31.5783 23.8368 31.5888 23.7814 31.5888C23.6688 31.5888 23.589 31.5609 23.5422 31.5053C23.4955 31.4479 23.4721 31.3629 23.4719 31.2502V29.5042H23.9969V29.1322H23.4719V28.4505H22.9907ZM1.83244 28.5705H2.59744C2.86111 28.572 3.06236 28.6353 3.20119 28.7605C3.34169 28.885 3.41194 29.0644 3.41194 29.2987C3.41194 29.5138 3.33828 29.6854 3.19094 29.8137C3.04528 29.9422 2.84828 30.0066 2.59994 30.0068H1.83244V28.5705ZM5.64994 29.08C5.42594 29.08 5.21778 29.1425 5.02544 29.2675C4.83461 29.3907 4.68544 29.5625 4.57794 29.783C4.47178 30.0015 4.41878 30.2503 4.41894 30.5295V30.618C4.41894 31.0377 4.53869 31.3733 4.77819 31.6248C5.01769 31.8748 5.32828 31.9998 5.70994 31.9998C6.18161 31.9998 6.53544 31.8184 6.77144 31.4557L6.47744 31.2267C6.39256 31.3376 6.28736 31.4313 6.16744 31.5028C6.04944 31.5721 5.90553 31.6068 5.73569 31.6068C5.49636 31.6068 5.29861 31.5217 5.14244 31.3517C4.98811 31.1801 4.90744 30.9555 4.90044 30.678H6.80744V30.4772C6.80761 30.0279 6.70628 29.6827 6.50344 29.4417C6.30044 29.2006 6.01594 29.08 5.64994 29.08ZM8.46294 29.08C8.26877 29.078 8.07638 29.1172 7.89844 29.195C7.72828 29.271 7.59286 29.3749 7.49219 29.5068C7.39336 29.6369 7.34386 29.7723 7.34369 29.913H7.82794C7.82794 29.7897 7.88611 29.6847 8.00244 29.598C8.11861 29.5113 8.26244 29.468 8.43394 29.468C8.63028 29.468 8.77878 29.5183 8.87944 29.619C8.97994 29.7177 9.03019 29.8511 9.03019 30.0193V30.2405H8.56144C8.15728 30.2405 7.84328 30.3221 7.61944 30.4853C7.39744 30.6468 7.28644 30.8741 7.28644 31.1672C7.28644 31.4082 7.37503 31.6077 7.55219 31.7655C7.73086 31.9217 7.95886 31.9998 8.23619 31.9998C8.54686 31.9998 8.81411 31.8836 9.03794 31.6513C9.05544 31.7934 9.07794 31.8922 9.10544 31.9475H9.61045V31.906C9.54461 31.7535 9.51169 31.5479 9.51169 31.2892V29.9935C9.50469 29.709 9.40911 29.4862 9.22494 29.325C9.04128 29.1617 8.78728 29.08 8.46294 29.08ZM11.3924 29.08C11.1359 29.08 10.9131 29.1392 10.7239 29.2575C10.5366 29.375 10.3926 29.5406 10.2919 29.7542C10.1913 29.9674 10.1409 30.2111 10.1409 30.4853V30.5658C10.1409 31.0101 10.2538 31.3607 10.4794 31.6175C10.7068 31.8725 11.0121 32 11.3954 32C11.5863 32 11.7666 31.9565 11.9364 31.8695C12.1003 31.7892 12.2417 31.6693 12.3477 31.5208C12.4502 31.3751 12.5059 31.2216 12.5147 31.0602H12.0589C12.0451 31.2164 11.974 31.3465 11.8457 31.4505C11.7189 31.5542 11.5595 31.6095 11.3957 31.6068C11.1474 31.6068 10.9564 31.5192 10.8227 31.3442C10.6894 31.1689 10.6227 30.919 10.6227 30.5945V30.5037C10.6227 30.1706 10.6894 29.9164 10.8227 29.7412C10.958 29.5642 11.148 29.4759 11.3927 29.4762C11.5749 29.4761 11.7274 29.5349 11.8504 29.6528C11.9758 29.7689 12.0453 29.9181 12.0589 30.1003H12.5147C12.5005 29.7986 12.3885 29.5532 12.1787 29.364C11.9704 29.1748 11.7083 29.0802 11.3924 29.08ZM21.0154 29.08C20.8214 29.0781 20.6291 29.1173 20.4512 29.195C20.281 29.271 20.1456 29.3749 20.0449 29.5068C19.9461 29.6369 19.8968 29.7723 19.8969 29.913H20.3807C20.3807 29.7897 20.4389 29.6847 20.5552 29.598C20.6714 29.5113 20.8152 29.468 20.9867 29.468C21.183 29.468 21.3315 29.5183 21.4322 29.619C21.5327 29.7177 21.5829 29.8511 21.5829 30.0193V30.2405H21.1147C20.7102 30.2405 20.396 30.3221 20.1722 30.4853C19.9502 30.6468 19.8392 30.8741 19.8392 31.1672C19.8392 31.4082 19.9278 31.6077 20.1049 31.7655C20.2834 31.9217 20.5114 31.9998 20.7889 31.9998C21.0996 31.9998 21.3669 31.8836 21.5907 31.6513C21.6079 31.7934 21.6304 31.8922 21.6582 31.9475H22.1632V31.906C22.0974 31.7535 22.0644 31.5479 22.0644 31.2892V29.9935C22.0573 29.709 21.9617 29.4862 21.7777 29.325C21.594 29.1617 21.3401 29.08 21.0154 29.08ZM29.5117 29.08C29.2896 29.0795 29.0723 29.1447 28.8872 29.2675C28.6962 29.3907 28.5469 29.5625 28.4394 29.783C28.3336 30.0015 28.2807 30.2503 28.2807 30.5295V30.618C28.2807 31.0377 28.4005 31.3733 28.6402 31.6248C28.8794 31.8748 29.1897 31.9998 29.5712 31.9998C30.0432 31.9998 30.3972 31.8184 30.6332 31.4557L30.3392 31.2267C30.2543 31.3376 30.1491 31.4313 30.0292 31.5028C29.9114 31.5721 29.7675 31.6068 29.5977 31.6068C29.358 31.6068 29.1603 31.5217 29.0044 31.3517C28.8499 31.1801 28.7691 30.9555 28.7619 30.678H30.6694V30.4772C30.6694 30.0279 30.568 29.6827 30.3652 29.4417C30.1624 29.2008 29.8779 29.0802 29.5117 29.08ZM24.6039 29.1325V31.9475H25.0854V29.1325H24.6039ZM25.5799 29.1325L26.5994 31.9475H26.9669L27.9764 29.1325H27.4839L26.7869 31.2948L26.0719 29.1322L25.5799 29.1325ZM5.64994 29.476C5.85094 29.476 6.01061 29.5435 6.12894 29.6785C6.24678 29.8122 6.31261 30.0013 6.32644 30.246V30.2825H4.91594C4.94711 30.0275 5.02878 29.8296 5.16094 29.6887C5.22239 29.6203 5.29787 29.5658 5.38226 29.5292C5.46665 29.4925 5.55795 29.4742 5.64994 29.476ZM29.5117 29.476C29.7129 29.476 29.8724 29.5435 29.9902 29.6785C30.1082 29.8122 30.174 30.0013 30.1877 30.246V30.2825H28.7777C28.8089 30.0275 28.8904 29.8296 29.0224 29.6887C29.0839 29.6202 29.1594 29.5658 29.2439 29.5291C29.3283 29.4924 29.4197 29.4742 29.5117 29.476ZM8.65269 30.5818H9.03019V31.1593C8.96953 31.2843 8.87153 31.3858 8.73619 31.4638C8.60596 31.5402 8.45771 31.5806 8.30669 31.5807C8.14869 31.5807 8.01953 31.5382 7.91919 31.4533C7.81836 31.3683 7.76794 31.2503 7.76794 31.0995C7.76794 30.7545 8.06294 30.582 8.65294 30.582L8.65269 30.5818ZM21.2052 30.5818H21.5827V31.1593C21.5222 31.2843 21.4243 31.3858 21.2889 31.4638C21.1586 31.5403 21.0101 31.5807 20.8589 31.5807C20.7014 31.5807 20.5723 31.5382 20.4714 31.4533C20.3711 31.3683 20.3209 31.2503 20.3207 31.0995C20.3207 30.7545 20.6157 30.582 21.2057 30.582L21.2052 30.5818Z" fill="#61DAFB"/>
</svg>
