<svg width="33" height="32" viewBox="0 0 33 32" fill="none" xmlns="http://www.w3.org/2000/svg">
<g clip-path="url(#clip0_13_434)">
<path d="M23.0675 22.0275C20.8175 26.6275 16.8775 29.7225 11.665 30.74C10.8658 30.9359 10.0453 31.0316 9.2225 31.025C6.2225 31.025 3.4725 29.775 2.1375 27.7275C0.345004 25 -0.264996 19.2175 5.645 14.94C5.765 15.5925 6.01 16.4875 6.1725 17.0175C5.01234 17.8794 4.0627 18.9932 3.395 20.275C2.295 22.435 2.4175 24.5925 3.72 26.5875C4.62 27.9325 6.045 28.75 7.8775 29C10.1663 29.2897 12.4883 28.8524 14.515 27.75C17.6925 26.08 19.81 24.085 21.195 21.3575C20.8034 20.9528 20.5716 20.4199 20.5425 19.8575C20.5216 19.254 20.7409 18.6668 21.1524 18.2248C21.564 17.7828 22.134 17.5221 22.7375 17.5H22.8225C23.4095 17.4971 23.9752 17.7199 24.4024 18.1224C24.8297 18.5249 25.0859 19.0762 25.118 19.6623C25.1502 20.2484 24.9557 20.8245 24.575 21.2712C24.1942 21.718 23.6563 22.0013 23.0725 22.0625L23.0675 22.0275ZM30.235 16.9775C33.2875 20.4375 33.37 24.51 32.19 26.8725C31.09 29.03 28.19 31.19 24.29 31.19C22.4694 31.1527 20.6785 30.722 19.04 29.9275C19.6125 29.52 20.425 28.8675 20.8725 28.46C22.1359 29.0076 23.4956 29.2983 24.8725 29.315C27.3975 29.315 29.31 28.135 30.45 25.9775C31.1825 24.5525 31.225 22.8825 30.5325 21.1725C29.6829 19.0209 28.1708 17.1953 26.215 15.96C23.6492 14.2304 20.6244 13.3083 17.53 13.3125H16.7975C16.6267 13.7071 16.3488 14.0459 15.9954 14.2907C15.6419 14.5355 15.2269 14.6764 14.7975 14.6975H14.72C14.126 14.6902 13.5583 14.4516 13.1374 14.0325C12.7165 13.6133 12.4756 13.0466 12.4659 12.4527C12.4561 11.8588 12.6783 11.2844 13.0851 10.8517C13.492 10.4189 14.0516 10.1618 14.645 10.135H14.7275C15.141 10.1353 15.5465 10.2496 15.8993 10.4652C16.2521 10.6809 16.5387 10.9896 16.7275 11.3575H17.38C22.58 11.3575 27.145 13.3525 30.235 16.9775ZM9.5475 22.7275C9.50449 22.3123 9.60508 21.895 9.8325 21.545C7.5525 17.595 6.3325 12.5875 8.205 7.375C9.5475 3.4575 12.9275 0.809998 16.5925 0.809998C20.5025 0.809998 24.575 4.2325 25.0625 10.8275C24.4525 10.625 23.5625 10.3275 23.0275 10.2175C22.895 8.06 21.0725 2.685 16.755 2.765C15.2075 2.8075 12.9275 3.54 11.755 5.045C10.3048 6.84164 9.46111 9.05153 9.345 11.3575C9.07 14.5194 9.81187 17.6866 11.4625 20.3975C11.5536 20.3642 11.6507 20.3506 11.7475 20.3575H11.8275C12.4322 20.3466 13.0165 20.5763 13.4518 20.9961C13.8871 21.416 14.1378 21.9916 14.1488 22.5962C14.1597 23.2009 13.93 23.7852 13.5101 24.2205C13.0903 24.6559 12.5147 24.9066 11.91 24.9175H11.8275C11.2376 24.9154 10.6712 24.6857 10.2465 24.2763C9.82171 23.867 9.57133 23.3094 9.5475 22.72V22.7275Z" fill="#764ABC"/>
</g>
<defs>
<clipPath id="clip0_13_434">
<rect width="32" height="32" fill="white" transform="translate(0.89502)"/>
</clipPath>
</defs>
</svg>
