<svg width="32" height="32" viewBox="0 0 32 32" fill="none" xmlns="http://www.w3.org/2000/svg">
<path d="M8.56199 15.256C10.9502 16.0945 13.4693 16.4986 16 16.449C18.5307 16.4982 21.0498 16.0939 23.438 15.255C25.302 14.528 25.963 13.72 25.963 13.255V9.70001C25.3111 10.1361 24.612 10.4971 23.879 10.776C21.3524 11.6806 18.6833 12.1216 16 12.078C13.317 12.1201 10.6483 11.6798 8.12099 10.778C7.38753 10.4992 6.68833 10.1376 6.03699 9.70001V13.25C6.03699 13.724 6.69999 14.528 8.56199 15.256ZM8.56199 21.961C9.40558 22.2828 10.2755 22.5307 11.162 22.702C12.7561 23.0097 14.3764 23.1615 16 23.155C17.6235 23.1618 19.2438 23.0104 20.838 22.703C21.7245 22.5317 22.5944 22.2838 23.438 21.962C25.302 21.235 25.963 20.427 25.963 19.962V16.572C25.4243 16.8962 24.8581 17.1723 24.271 17.397C21.6167 18.3366 18.8152 18.7915 16 18.74C13.1845 18.7899 10.383 18.3333 7.72899 17.392C7.14245 17.1659 6.57638 16.8899 6.03699 16.567V19.96C6.03699 20.426 6.69999 21.231 8.56199 21.961ZM16 30C21.5 30 25.963 28.256 25.963 26.106V23.269C25.4729 23.5644 24.9596 23.8193 24.428 24.031L24.271 24.094C21.6172 25.0363 18.8157 25.4939 16 25.445C13.1842 25.4961 10.3822 25.0384 7.72899 24.094L7.57199 24.031C7.04041 23.8193 6.52704 23.5644 6.03699 23.269V26.106C6.03699 28.256 10.5 30 16 30Z" fill="#FFDA44"/>
<path d="M16 9.788C21.5024 9.788 25.963 8.0446 25.963 5.894C25.963 3.7434 21.5024 2 16 2C10.4976 2 6.03699 3.7434 6.03699 5.894C6.03699 8.0446 10.4976 9.788 16 9.788Z" fill="#FFDA44"/>
</svg>
