<svg width="37" height="32" viewBox="0 0 37 32" fill="none" xmlns="http://www.w3.org/2000/svg">
<g clip-path="url(#clip0_13_445)">
<path d="M19.985 4.4267C20.188 4.4267 20.3828 4.50598 20.5281 4.64764C20.6734 4.78929 20.7576 4.98209 20.7628 5.18495L20.7631 5.20472V14.1105C20.7631 14.3134 20.6838 14.5083 20.5422 14.6537C20.4005 14.799 20.2077 14.8832 20.0048 14.8884L19.985 14.8886H12.7231C12.5201 14.8887 12.3252 14.8094 12.1799 14.6677C12.0345 14.526 11.9503 14.3331 11.9452 14.1303L11.9451 14.1105V5.20472C11.9451 5.0018 12.0244 4.80692 12.166 4.66162C12.3077 4.51631 12.5005 4.43206 12.7033 4.42683L12.7231 4.4267H19.985ZM19.985 4.77279H12.7231C12.6112 4.77282 12.5036 4.81621 12.423 4.89386C12.3424 4.97151 12.2951 5.07737 12.2909 5.1892L12.2905 5.20472V14.1105C12.2906 14.2225 12.3342 14.3301 12.4119 14.4107C12.4897 14.4913 12.5957 14.5386 12.7076 14.5428L12.7231 14.5431H19.985C20.097 14.5429 20.2046 14.4993 20.2851 14.4216C20.3657 14.3438 20.4131 14.2379 20.4172 14.126L20.4175 14.1105V5.20472C20.4173 5.0901 20.3717 4.98024 20.2906 4.89926C20.2094 4.81828 20.0995 4.77279 19.9849 4.77279M13.7603 12.7272V13.2455H13.2414V12.7272H13.7603ZM19.5532 12.7272V13.2455H14.02V12.7272H19.5532ZM13.7603 10.4794V10.9977H13.2414V10.4794H13.7603ZM19.5532 10.4794V10.9977H14.02V10.4794H19.5532ZM13.7603 8.31792V8.8361H13.2414V8.31792H13.7603ZM19.5532 8.31792V8.8361H14.02V8.31792H19.5532ZM19.5532 6.32925V6.84812H13.2413V6.32912L19.5532 6.32925ZM19.985 16.7032V16.7087C20.1871 16.7086 20.3812 16.7872 20.5264 16.9277C20.6715 17.0683 20.7563 17.2597 20.7628 17.4617L20.7631 17.4813V26.3871C20.7631 26.59 20.6838 26.7849 20.5422 26.9303C20.4005 27.0756 20.2077 27.1598 20.0048 27.165L19.985 27.1652H12.7231C12.5208 27.1653 12.3265 27.0865 12.1813 26.9457C12.0361 26.8048 11.9515 26.613 11.9453 26.4108L11.9451 26.3871V17.4813C11.9451 17.2784 12.0244 17.0835 12.166 16.9382C12.3077 16.7929 12.5005 16.7087 12.7033 16.7034L12.7231 16.7033L19.985 16.7032ZM19.985 17.0494H12.7231C12.6112 17.0494 12.5036 17.0928 12.423 17.1705C12.3424 17.2481 12.2951 17.354 12.2909 17.4658L12.2905 17.4813V26.3871C12.2906 26.4991 12.3342 26.6067 12.4119 26.6873C12.4897 26.7679 12.5957 26.8152 12.7076 26.8194L12.7231 26.8197H19.985C20.0966 26.8195 20.2038 26.7763 20.2843 26.6991C20.3648 26.6219 20.4124 26.5166 20.4172 26.4052L20.4175 26.3898V17.4841C20.4173 17.3722 20.3738 17.2647 20.2961 17.1842C20.2183 17.1037 20.1124 17.0565 20.0006 17.0524L19.985 17.0521V17.0494ZM13.7603 25.0057V25.5247H13.2414V25.0057H13.7603ZM19.5532 25.0098V25.5207H14.02V25.0098H19.5532ZM13.7603 22.7579V23.2768H13.2414V22.7579H13.7603ZM19.5532 22.7619V23.2728H14.02V22.7619H19.5532ZM13.7603 20.597V21.1153H13.2414V20.597H13.7603ZM19.5532 20.6011V21.1113H14.02V20.6008L19.5532 20.6011ZM19.5532 18.6083V19.1272H13.2413V18.6083H19.5532ZM22.0793 9.65767V10.0895H24.6727V21.8362H22.0793V22.2687H25.1052V9.65767H24.6727H22.0793Z" fill="#8E8F8F"/>
<path d="M3.60072 2.03192C4.11203 1.19319 4.95447 0.703985 5.80542 0.419968L5.92147 0.382474L6.03739 0.347453C6.09534 0.330514 6.15316 0.314491 6.21085 0.299384L6.3258 0.270131C6.34503 0.26537 6.36412 0.260792 6.38307 0.256397L6.49706 0.230302L6.55351 0.218079L6.66585 0.195144L6.77696 0.174268L6.88655 0.155041L6.99464 0.137736L7.1008 0.121942L7.20504 0.107933L7.30709 0.0954354L7.40679 0.0843109L7.50403 0.0745598L7.64467 0.0621993L7.77857 0.0525856L7.9052 0.045444L8.04281 0.0395384L8.16875 0.0359676L8.24566 0.0347315L8.31653 0.0341822H8.38122L8.46595 0.0352809L8.51375 0.0362422L8.60096 0.0392637L8.63941 0.0411865V2.11693C6.80346 1.94223 5.98424 2.49681 5.62303 3.08778L5.59049 3.14326C5.54546 3.22316 5.50667 3.3064 5.47443 3.39226L5.45493 3.44665C5.45173 3.45553 5.44871 3.4645 5.44587 3.47356L5.42925 3.52713L5.41442 3.57973L5.40151 3.63137C5.3994 3.63988 5.39743 3.64835 5.3956 3.65677L5.38503 3.7069L5.38036 3.73162L5.37212 3.77969L5.36497 3.82639L5.35934 3.87157L5.35289 3.93612L5.34863 3.99641L5.34657 4.04366L5.34561 4.08747V4.1273L5.3463 4.16301L5.34767 4.19459L5.35001 4.23305L5.3544 4.27837V5.04102L5.34987 6.59803L5.34437 7.72009L5.33806 8.66388L5.33119 9.46141L5.32432 10.0895L5.31636 10.7009L5.30812 11.2221L5.29768 11.7743L5.29122 12.0621L5.28422 12.334L5.27516 12.6368L5.272 12.7316L5.27172 12.9068L5.27076 13.0141L5.26952 13.0866L5.26678 13.1962L5.26238 13.3022L5.25881 13.3668L5.25469 13.4316L5.24947 13.4967L5.24013 13.5945L5.23272 13.6599L5.22406 13.7254L5.21431 13.7909L5.20896 13.8236L5.19728 13.8889L5.19097 13.9216L5.17723 13.9869L5.16213 14.052L5.14551 14.1169C5.13965 14.1385 5.13351 14.1601 5.1271 14.1815L5.10705 14.246L5.08535 14.3099L5.06173 14.3735C4.79584 15.0606 4.19375 15.6724 2.83066 15.9558C4.1568 16.2311 4.76261 16.8169 5.03934 17.4802L5.06461 17.5437C5.08906 17.6074 5.11071 17.6716 5.12958 17.7364L5.14784 17.8012C5.15938 17.8445 5.16991 17.888 5.17943 17.9317L5.19289 17.997L5.19907 18.0299L5.21061 18.0954L5.22091 18.161L5.22983 18.2267L5.2378 18.2923L5.24467 18.3578L5.25043 18.4232L5.25538 18.4884L5.26128 18.5858L5.26431 18.6504L5.26801 18.7586L5.26966 18.83L5.2709 18.901L5.27172 19.0061L5.272 19.1805L5.28134 19.4845L5.28958 19.8057L5.29727 20.1498L5.30413 20.5143L5.31169 20.9612L5.32185 21.6994L5.32872 22.325L5.33229 22.6769L5.33957 23.5759L5.34753 24.9097L5.35303 26.3533L5.35509 26.3521V27.6325L5.35303 27.6506L5.35055 27.6778L5.34904 27.7022L5.34698 27.7477L5.3463 27.7835V27.8234L5.34726 27.8672L5.34932 27.9144L5.35344 27.974L5.35742 28.0159L5.36539 28.0821L5.37225 28.1283L5.38036 28.1756L5.38997 28.2244L5.39519 28.2491L5.407 28.2997L5.41359 28.3252L5.42788 28.3771L5.44408 28.4297C5.44683 28.4387 5.44976 28.4476 5.45287 28.4564L5.47196 28.5099C5.47865 28.528 5.48565 28.546 5.49297 28.5642L5.51632 28.6186C5.80473 29.2652 6.56518 29.9635 8.53229 29.8034L8.6401 29.7938V31.8696L8.58503 31.8724L8.48285 31.8753L8.39879 31.8767H8.29895L8.2241 31.876L8.14307 31.8743L8.05627 31.8718L7.94338 31.8673L7.86372 31.8633L7.78104 31.8584L7.69507 31.8525L7.60635 31.8456L7.51488 31.8374L7.4208 31.8282L7.32425 31.8176L7.22551 31.8057L7.1247 31.7923L7.07361 31.785L6.97006 31.7694L6.91759 31.7612L6.81157 31.743L6.758 31.7334L6.64992 31.7125L6.5954 31.7015L6.48552 31.6782L6.37497 31.6527C6.33788 31.644 6.30076 31.6348 6.26358 31.6252L6.15152 31.5957C5.12285 31.3152 4.04199 30.7609 3.48618 29.6747C3.60676 28.3395 4.15584 27.2012 5.14207 26.4927C5.18849 26.4599 5.23551 26.4282 5.28312 26.3975L5.33696 26.3633C5.27012 26.4045 5.20452 26.4481 5.14015 26.4941C4.15584 27.2012 3.60676 28.3395 3.48618 29.6693C3.23884 29.1696 3.10918 28.6199 3.10712 28.0623L3.09476 27.49L3.07869 26.7962L3.05864 25.9843L3.03117 24.9493L3.00618 24.0516L2.97157 22.8764L2.93256 21.6176L2.86719 19.6366L2.8514 19.1772C2.8128 18.1373 2.39543 17.6307 1.96103 17.3863L1.9098 17.3587L1.88425 17.3458L1.83303 17.3216C1.816 17.3139 1.79901 17.3066 1.78207 17.2996L1.7314 17.2798C1.71464 17.2734 1.69788 17.2675 1.68113 17.262L1.63141 17.2458C1.61493 17.2408 1.59863 17.2361 1.58252 17.2316L1.54365 17.2213L1.50547 17.2121L1.46784 17.2039L1.43103 17.1966L1.37734 17.1873L1.34259 17.1822L1.30894 17.1778L1.26046 17.1724L1.21761 17.1722L1.13013 17.1712C1.08444 17.1705 1.03875 17.1705 0.993061 17.1712L0.945679 17.1724V14.7398C1.05953 14.7439 1.1613 14.7418 1.26046 14.7365L1.30894 14.731L1.34259 14.7267L1.37734 14.7215L1.43103 14.7122L1.46784 14.7049L1.50547 14.6966L1.54365 14.6874L1.58252 14.6773L1.63141 14.663L1.68113 14.6469L1.7314 14.6291C2.23625 14.4402 2.80594 13.955 2.8514 12.7316L2.91045 10.9723L2.95619 9.53516L2.98091 8.71964L3.01881 7.41135L3.04353 6.50134L3.06152 5.80819L3.08419 4.88019L3.09737 4.30337L3.10712 3.84589C3.12223 3.125 3.29994 2.5398 3.5819 2.06488L3.60085 2.03343L3.60072 2.03192ZM28.4101 2.08273V0.00712636L28.4658 0.00437958L28.5433 0.00204482L28.5935 0.00108344L28.6823 0.00012207H28.75L28.8241 0.000946105L28.9384 0.00328087L29.0844 0.00849975L29.1625 0.0122079L29.2438 0.0168774L29.3717 0.0255298L29.4606 0.0326714L29.552 0.0409118L29.6461 0.0505255L29.7424 0.061238L29.841 0.0733238L29.9415 0.086783L30.044 0.10189L30.1482 0.118371L30.2008 0.127298L30.3073 0.146388L30.4149 0.167264L30.5237 0.189787L30.6336 0.214508L30.744 0.240877C30.7996 0.254611 30.8552 0.269169 30.911 0.284551L31.0228 0.316414C32.0679 0.623367 33.1423 1.22175 33.6471 2.38021C33.839 2.8331 33.9396 3.31942 33.943 3.81128L33.9554 4.38357L33.9715 5.07741L33.9827 5.54162L34.0006 6.23655L34.0252 7.15164L34.044 7.82241L34.0786 8.99775L34.1176 10.2566L34.183 12.2376L34.1988 12.697C34.238 13.7542 34.6687 14.2599 35.1108 14.4996L35.1619 14.5261L35.1875 14.5384L35.2383 14.5618L35.2891 14.5826C35.2975 14.586 35.3059 14.5893 35.3144 14.5924L35.3645 14.6105L35.3894 14.6188L35.4387 14.634L35.463 14.641L35.5352 14.6596L35.5823 14.6701L35.6282 14.6791L35.6728 14.6867L35.7076 14.692L35.7412 14.6964L35.7897 14.7017C35.8747 14.7063 35.9632 14.7084 36.0571 14.7064L36.1045 14.705V17.1384C35.9996 17.1347 35.8945 17.1359 35.7897 17.1418L35.7577 17.1451L35.7245 17.1492L35.6728 17.1567L35.6191 17.166L35.5823 17.1733L35.5447 17.1815L35.5065 17.1907L35.4676 17.2009L35.4433 17.2077L35.3939 17.2229L35.369 17.2311L35.3188 17.2491L35.2935 17.2587L35.2427 17.2797C34.7583 17.4883 34.2419 17.9843 34.1989 19.1466L34.1396 20.9049L34.094 22.3422L34.0692 23.1578L34.0313 24.4662L34.0066 25.3763L33.9886 26.0694L33.966 26.9974L33.9528 27.5742L33.943 28.0316C33.9392 28.4593 33.8632 28.8834 33.7183 29.2859L33.701 29.333L33.7019 29.3374C33.1844 30.6744 31.9321 31.303 30.776 31.5955L30.6626 31.6233L30.6062 31.6363L30.494 31.661L30.4384 31.6724L30.328 31.6941L30.2732 31.7043L30.1647 31.7232L30.1111 31.732L30.0051 31.7485L29.901 31.7632L29.799 31.7764L29.699 31.7881L29.6015 31.7985L29.5066 31.8076L29.3692 31.8188L29.2813 31.825L29.1557 31.8324L29.0376 31.8376L28.8934 31.842L28.8112 31.8434L28.7357 31.844H28.6673L28.6062 31.8433L28.5529 31.8423L28.4879 31.8404L28.4316 31.8381L28.412 31.837V29.7612C30.334 29.9442 31.1417 29.3278 31.4763 28.7071L31.5051 28.6515C31.5143 28.633 31.523 28.6145 31.5312 28.596L31.5553 28.5408C31.5629 28.5225 31.5701 28.5042 31.577 28.4859L31.5966 28.4316L31.6142 28.3778L31.6223 28.3512L31.6371 28.2986L31.65 28.2468L31.6614 28.1961L31.6712 28.1467L31.6794 28.0986L31.6864 28.0519L31.6922 28.0066L31.6986 27.942L31.7017 27.9014L31.705 27.8345L31.7059 27.7908V27.751L31.7052 27.715L31.7039 27.6836L31.7025 27.6568L31.6992 27.6179L31.6971 27.5998V26.4614L31.7003 25.4015L31.7055 24.3079L31.7117 23.3862L31.7198 22.4453L31.7291 21.6008L31.7357 21.1098L31.7419 20.7144L31.7501 20.2609L31.7559 19.9739L31.7624 19.7009L31.7691 19.4433L31.7782 19.1459L31.7784 18.9715L31.7794 18.8652L31.7805 18.7935L31.7823 18.7212L31.7861 18.6119L31.7897 18.5386L31.7937 18.4732L31.7985 18.4077L31.804 18.3419L31.8108 18.276L31.8184 18.21L31.8272 18.1438L31.8321 18.1109L31.8427 18.0448L31.8547 17.9789L31.868 17.913L31.8828 17.8471C31.9008 17.7705 31.9223 17.6944 31.9471 17.6188L31.9695 17.5543C32.0003 17.4686 32.0366 17.384 32.0784 17.3007L32.1108 17.2386C32.4248 16.6621 33.0345 16.1674 34.2195 15.921C32.725 15.6108 32.1454 14.9065 31.9204 14.141L31.9023 14.0761C31.8909 14.0328 31.8803 13.9893 31.8707 13.9457L31.8573 13.8803L31.8511 13.8476L31.8396 13.782L31.8293 13.7163L31.8203 13.6507L31.8124 13.5852L31.8055 13.5196L31.7997 13.4543L31.7948 13.389L31.7889 13.2917L31.7858 13.2271L31.7821 13.1189L31.7805 13.0475L31.7793 12.9766L31.7784 12.8714L31.7782 12.697L31.7717 12.4941L31.7647 12.2362L31.7567 11.9043L31.7495 11.5507L31.7426 11.1786L31.7346 10.6585L31.7251 9.91051L31.718 9.21159L31.7114 8.40198L31.7028 6.96225L31.6971 5.40208C31.8152 5.33689 31.9295 5.26547 32.0399 5.18783C32.5898 4.79394 33.004 4.26299 33.2833 3.63837L33.3025 3.5947C33.0229 4.23827 32.6021 4.78501 32.038 5.18865C31.946 5.2532 31.8512 5.31359 31.7537 5.3698L31.6951 5.40277V4.24445L31.6971 4.22632L31.6996 4.19899L31.7011 4.17454L31.7032 4.12922L31.7039 4.09338V4.05355L31.7029 4.0096L31.7008 3.96235L31.6984 3.92321L31.6929 3.86086L31.6848 3.79466L31.6779 3.74865L31.6698 3.70113L31.6602 3.65238L31.655 3.62766L31.6432 3.57726L31.6366 3.55157L31.6223 3.49966L31.6061 3.44706C31.6033 3.43827 31.6004 3.42939 31.5973 3.42041L31.5782 3.36685C31.5715 3.34891 31.5645 3.33087 31.5572 3.31274L31.5338 3.25822C31.2454 2.61176 30.485 1.91339 28.5179 2.07339L28.4101 2.08273Z" fill="#FE0902"/>
<path d="M5.22657 4.95684C5.24726 4.97186 5.26841 4.98623 5.29002 4.99997L5.35443 5.04117V4.27852L5.35237 4.2604L5.35003 4.23306L5.34839 4.20862L5.34633 4.16316L5.34564 4.12745V4.08748L5.3466 4.04367L5.34866 3.99643L5.35127 3.9566L5.3547 3.91499L5.35937 3.87159L5.365 3.8264L5.37201 3.77971L5.38025 3.73164L5.39014 3.68206L5.39563 3.65679L5.40772 3.6057L5.42159 3.55351L5.42928 3.527L5.44576 3.47358L5.45496 3.44666L5.47446 3.39227C5.5055 3.31028 5.54368 3.22664 5.59052 3.14328L5.62306 3.08779C5.98427 2.49682 6.80349 1.94239 8.63958 2.11694V0.0412017L8.60113 0.039279L8.53506 0.0369442L8.49084 0.0357082L8.38124 0.0343348H8.31669L8.24569 0.0347468L8.12813 0.0369442L8.02073 0.0403777L7.90523 0.0454592L7.7786 0.0527382L7.6447 0.0623519L7.55158 0.0701803L7.40682 0.0843262L7.30712 0.0953133L7.20507 0.107948L7.10083 0.121957L6.99467 0.137751L6.88658 0.155056L6.77699 0.174283L6.66588 0.195159L6.55354 0.218094L6.49695 0.230455L6.3831 0.256412C6.36415 0.260807 6.34506 0.265385 6.32583 0.270146L6.21088 0.299399C6.15319 0.314506 6.09537 0.330529 6.03742 0.347468L5.9215 0.382489L5.80545 0.419983C4.9545 0.704 4.11206 1.1932 3.60075 2.03193C3.7661 3.25658 4.30585 4.30063 5.22657 4.95684ZM8.64013 31.8698V29.7939C6.63209 29.985 5.84034 29.3036 5.53379 28.6565L5.50866 28.6011C5.49686 28.5739 5.48568 28.5465 5.47515 28.5187L5.45565 28.4642L5.44658 28.4373L5.42997 28.3837L5.41513 28.3313L5.40209 28.2795L5.39082 28.2288L5.38107 28.1794L5.3727 28.1313L5.36583 28.0846L5.36006 28.0393L5.35361 27.9747L5.34935 27.9144L5.34729 27.8672L5.34633 27.8234V27.7836L5.34701 27.7478L5.34839 27.7163L5.34976 27.6895L5.35306 27.6506L5.35512 27.6314V26.3521C5.28278 26.3968 5.21183 26.4436 5.14224 26.4927C4.15587 27.2012 3.60679 28.3395 3.48621 29.6749C4.04215 30.7609 5.12274 31.3152 6.15155 31.5957L6.26361 31.6252C6.3007 31.6348 6.33782 31.644 6.375 31.6527L6.48569 31.6781L6.59543 31.7016L6.70406 31.7231L6.75803 31.7333L6.86475 31.7522L6.91762 31.761L7.022 31.7775L7.07364 31.7851L7.17541 31.7992L7.22554 31.8057L7.32442 31.8176L7.42083 31.8282L7.51491 31.8374L7.60638 31.8456L7.6951 31.8525L7.78107 31.8584L7.86375 31.8633L7.98186 31.8691L8.0563 31.8719L8.14324 31.8743L8.22427 31.876L8.29898 31.8767L8.39882 31.8765L8.48288 31.8753L8.55017 31.8735L8.64013 31.8698ZM33.6471 2.38009C33.1101 1.14788 31.9289 0.549356 30.8238 0.261082L30.7135 0.233339L30.6039 0.207519L30.5496 0.195296L30.4413 0.172361L30.3875 0.161648L30.2809 0.141459L30.1757 0.122918L30.0719 0.106026L29.9697 0.0906438L29.8693 0.0769099L29.7708 0.0645494L29.6746 0.0534249L29.5805 0.0436738L29.4889 0.0350215L29.3564 0.024309L29.2301 0.0159313L29.1109 0.00947639L28.9991 0.00494421L28.9291 0.00288412L28.8446 0.00109871L28.7665 0H28.6953L28.6312 0.000412017L28.5746 0.00123605L28.5043 0.00302146L28.4527 0.00494421L28.4101 0.00700429V2.08288C30.4181 1.89171 31.2099 2.57305 31.5164 3.22019L31.5416 3.27567C31.5535 3.30314 31.5646 3.33061 31.5751 3.35808L31.5946 3.41246C31.5977 3.42144 31.6007 3.43045 31.6036 3.43952L31.6202 3.49294L31.6351 3.54555L31.6481 3.59718L31.6594 3.648L31.6691 3.69744L31.6775 3.74551L31.6844 3.79221L31.6902 3.83753L31.6966 3.90208L31.7009 3.96223L31.7029 4.00961L31.7039 4.05329V4.09312L31.7032 4.12896L31.7018 4.16055L31.6996 4.199L31.6951 4.2446V5.40278C31.8132 5.3375 31.9275 5.26608 32.038 5.18853C32.9306 4.54963 33.465 3.55269 33.6471 2.38009ZM32.1263 26.7244C31.9894 26.6271 31.846 26.5391 31.6972 26.4613V27.5997L31.6992 27.6178L31.7016 27.645L31.7032 27.6694L31.7053 27.7149L31.7059 27.7507V27.7906L31.705 27.8344L31.7017 27.9013L31.6987 27.9419L31.6922 28.0065L31.6864 28.0518L31.6796 28.0985L31.6712 28.1465L31.6615 28.196L31.6501 28.2468L31.6371 28.2984L31.6223 28.351L31.6142 28.3777L31.5966 28.4315L31.577 28.4859C31.5701 28.504 31.5629 28.5223 31.5553 28.5408L31.5314 28.5959C31.5231 28.6145 31.5143 28.633 31.505 28.6514L31.4763 28.707C31.1418 29.3278 30.3341 29.944 28.412 29.7611V31.8368L28.4428 31.8385L28.5312 31.8416L28.6399 31.8436L28.7058 31.844L28.8184 31.8433L28.9019 31.8418L28.9919 31.8392L29.1034 31.8348L29.2223 31.8286L29.3055 31.8232L29.4359 31.8136L29.5261 31.8057L29.6189 31.7966L29.7141 31.7863L29.8116 31.7746L29.9111 31.7617L30.0126 31.7472L30.1156 31.7312C30.133 31.7285 30.1504 31.7256 30.1677 31.7226L30.2732 31.7042L30.3799 31.684L30.4338 31.6733L30.5423 31.6505L30.5968 31.6384L30.7067 31.6126C31.8817 31.3277 33.174 30.701 33.702 29.3373C33.493 28.2478 32.9667 27.3264 32.1263 26.7244Z" fill="#FFAB00"/>
</g>
<defs>
<clipPath id="clip0_13_445">
<rect width="35.16" height="32" fill="white" transform="translate(0.945068)"/>
</clipPath>
</defs>
</svg>
