<svg width="33" height="32" viewBox="0 0 33 32" fill="none" xmlns="http://www.w3.org/2000/svg">
<g clip-path="url(#clip0_13_461)">
<path d="M24.5145 10.205L16.8645 21.266C16.8038 21.3538 16.7227 21.4255 16.6282 21.475C16.5336 21.5244 16.4284 21.5502 16.3217 21.55C16.215 21.5499 16.1099 21.5238 16.0155 21.474C15.9211 21.4242 15.8402 21.3522 15.7798 21.2643C15.6994 21.1468 15.6598 21.0062 15.667 20.864L15.9733 14.757L11.0303 13.709C10.925 13.6866 10.8268 13.6386 10.7443 13.5692C10.6619 13.4999 10.5978 13.4114 10.5575 13.3115C10.5175 13.2116 10.5029 13.1033 10.515 12.9964C10.5271 12.8894 10.5656 12.7872 10.627 12.6988L18.277 1.63778C18.3582 1.52003 18.4756 1.43197 18.6114 1.38695C18.7471 1.34192 18.8938 1.34239 19.0293 1.38828C19.1645 1.43359 19.2813 1.52181 19.3618 1.63953C19.4423 1.75703 19.4818 1.89753 19.4745 2.03978L19.1685 8.14678L24.111 9.19478C24.2168 9.21728 24.3153 9.26528 24.3978 9.33478C24.5222 9.43913 24.6032 9.5862 24.6248 9.74715C24.6464 9.9081 24.6071 10.0716 24.5145 10.205Z" fill="#FCC72B"/>
<path d="M16.5033 30.5462C16.0924 30.5462 15.6984 30.383 15.4078 30.0925L8.17927 22.8645C7.96352 22.6477 7.81679 22.3719 7.75757 22.0718C7.69836 21.7718 7.72932 21.4609 7.84654 21.1784C7.96376 20.8959 8.162 20.6544 8.41626 20.4845C8.67052 20.3145 8.96942 20.2236 9.27527 20.2232C9.68536 20.2228 10.0789 20.3849 10.3698 20.674L16.5033 26.8065L29.8648 13.4455C30.1552 13.155 30.5492 12.9918 30.96 12.9918C31.3708 12.9918 31.7648 13.155 32.0553 13.4455C32.3457 13.736 32.5089 14.1299 32.5089 14.5407C32.5089 14.9515 32.3457 15.3455 32.0553 15.636L17.5983 30.0925C17.4546 30.2365 17.2839 30.3507 17.096 30.4285C16.9081 30.5064 16.7067 30.5464 16.5033 30.5462Z" fill="#729B1B"/>
<path d="M16.497 30.5462C16.7005 30.5462 16.902 30.5065 17.0898 30.4287C17.2777 30.3507 17.4485 30.2365 17.5923 30.0925L24.8208 22.8645C25.1101 22.5738 25.2723 22.1802 25.2717 21.7701C25.2711 21.36 25.1079 20.9669 24.8178 20.677C24.5278 20.3871 24.1347 20.224 23.7246 20.2235C23.3146 20.2229 22.9211 20.3849 22.6303 20.674L16.497 26.8065L3.13501 13.4455C2.84352 13.16 2.45112 13.001 2.04308 13.0031C1.63503 13.0052 1.2443 13.1682 0.955767 13.4567C0.667232 13.7453 0.504203 14.136 0.502096 14.5441C0.499989 14.9521 0.658975 15.3445 0.944514 15.636L15.4015 30.0925C15.5452 30.2365 15.7159 30.3507 15.9038 30.4285C16.0917 30.5064 16.2931 30.5464 16.4965 30.5462H16.497Z" fill="#729B1B" fill-opacity="0.5"/>
</g>
<defs>
<clipPath id="clip0_13_461">
<rect width="32" height="32" fill="white" transform="translate(0.5)"/>
</clipPath>
</defs>
</svg>
