<svg width="33" height="32" viewBox="0 0 33 32" fill="none" xmlns="http://www.w3.org/2000/svg">
<path d="M29.989 6.14599L16.847 29.646C16.7853 29.7565 16.6953 29.8486 16.5863 29.9129C16.4772 29.9772 16.353 30.0114 16.2265 30.0119C16.0999 30.0124 15.9754 29.9793 15.8659 29.9158C15.7563 29.8524 15.6656 29.761 15.603 29.651L2.20099 6.14799C2.13361 6.03006 2.10127 5.89536 2.10775 5.7597C2.11423 5.62403 2.15927 5.49303 2.23759 5.38206C2.3159 5.2711 2.42425 5.18477 2.5499 5.13322C2.67555 5.08166 2.81331 5.06701 2.94699 5.09099L16.103 7.44299C16.1866 7.45836 16.2724 7.45836 16.356 7.44299L29.237 5.09499C29.3702 5.07066 29.5075 5.08468 29.633 5.13543C29.7585 5.18618 29.867 5.27157 29.9458 5.38162C30.0246 5.49168 30.0705 5.62188 30.0782 5.75704C30.0858 5.8922 30.0549 6.02774 29.989 6.14599Z" fill="url(#paint0_linear_13_468)"/>
<path d="M22.3689 2.00698L12.6449 3.91198C12.5673 3.92766 12.497 3.96849 12.445 4.02814C12.3929 4.0878 12.362 4.16296 12.3569 4.24198L11.7589 14.346C11.7556 14.4014 11.7653 14.4568 11.7872 14.5079C11.8091 14.5589 11.8426 14.6041 11.885 14.64C11.9274 14.6758 11.9776 14.7012 12.0316 14.7143C12.0856 14.7273 12.1418 14.7275 12.1959 14.715L14.9029 14.09C14.9613 14.0765 15.022 14.0779 15.0797 14.0941C15.1373 14.1102 15.1899 14.1406 15.2328 14.1824C15.2756 14.2243 15.3072 14.2762 15.3247 14.3334C15.3422 14.3906 15.345 14.4514 15.3329 14.51L14.5289 18.449C14.5165 18.5096 14.5201 18.5724 14.5393 18.6313C14.5585 18.6901 14.5927 18.743 14.6385 18.7846C14.6842 18.8263 14.7401 18.8553 14.8005 18.8689C14.8609 18.8824 14.9237 18.8801 14.9829 18.862L16.6549 18.354C16.7142 18.3358 16.7772 18.3335 16.8377 18.3471C16.8982 18.3607 16.9541 18.3898 16.9999 18.4316C17.0458 18.4733 17.0799 18.5263 17.099 18.5853C17.1181 18.6443 17.1215 18.7073 17.1089 18.768L15.8299 24.955C15.7499 25.342 16.2649 25.553 16.4799 25.222L16.6229 25L24.5479 9.18498C24.5777 9.12539 24.5902 9.05867 24.584 8.99236C24.5778 8.92604 24.5532 8.86278 24.5129 8.80972C24.4727 8.75667 24.4184 8.71593 24.3562 8.69212C24.294 8.66831 24.2263 8.66237 24.1609 8.67498L21.3739 9.21198C21.3139 9.22346 21.252 9.21936 21.1941 9.20007C21.1361 9.18077 21.0841 9.14693 21.0429 9.10178C21.0018 9.05663 20.9729 9.00168 20.9591 8.94219C20.9453 8.8827 20.9469 8.82065 20.9639 8.76198L22.7819 2.45598C22.7991 2.39713 22.8008 2.33485 22.7868 2.27515C22.7729 2.21545 22.7439 2.16034 22.7025 2.11513C22.6611 2.06992 22.6087 2.03613 22.5505 2.01701C22.4923 1.99789 22.4301 1.9941 22.3699 2.00598" fill="url(#paint1_linear_13_468)"/>
<defs>
<linearGradient id="paint0_linear_13_468" x1="1.87351" y1="4.25085" x2="18.2287" y2="26.4625" gradientUnits="userSpaceOnUse">
<stop stop-color="#41D1FF"/>
<stop offset="1" stop-color="#BD34FE"/>
</linearGradient>
<linearGradient id="paint1_linear_13_468" x1="15.3469" y1="2.52376" x2="18.3055" y2="22.8193" gradientUnits="userSpaceOnUse">
<stop stop-color="#FFEA83"/>
<stop offset="0.083" stop-color="#FFDD35"/>
<stop offset="1" stop-color="#FFA800"/>
</linearGradient>
</defs>
</svg>
