<svg width="33" height="32" viewBox="0 0 33 32" fill="none" xmlns="http://www.w3.org/2000/svg">
<path d="M29.8225 24.525L17.06 31.75V26.1225L25 21.75L29.8225 24.525ZM30.6975 23.735V8.6375L26.0275 11.3375V21.04L30.695 23.7325L30.6975 23.735ZM3.17749 24.525L15.9275 31.745V26.1225L7.98499 21.75L3.17749 24.525ZM2.30249 23.735V8.6375L6.97249 11.3375V21.04L2.30249 23.735ZM2.84999 7.66L15.94 0.25V5.69L7.55249 10.3025L7.48499 10.34L2.84999 7.66ZM30.145 7.66L17.06 0.25V5.69L25.4475 10.3L25.515 10.3375L30.15 7.66H30.145Z" fill="#8ED6FB"/>
<path d="M15.94 24.8425L8.09253 20.525V11.98L15.94 16.5V24.8425ZM17.06 24.8425L24.9075 20.53V11.98L17.06 16.5V24.8425ZM8.62503 11L16.5 6.66498L24.375 11L16.5 15.54L8.62503 11Z" fill="#1C78C0"/>
</svg>
