<svg width="700" height="351" viewBox="0 0 700 351" fill="none" xmlns="http://www.w3.org/2000/svg">
<rect width="700" height="351" fill="white"/>
<path d="M197.738 138C218.58 138 235.476 154.896 235.476 175.738C235.475 184.554 232.452 192.663 227.386 199.087L193.354 168.505C192.238 167.502 190.52 167.594 189.518 168.71C188.515 169.826 188.607 171.544 189.723 172.547L223.724 203.102C216.957 209.53 207.809 213.476 197.738 213.476C176.896 213.476 160 196.58 160 175.738C160 154.896 176.896 138 197.738 138ZM174.333 179.77C173.217 178.767 171.5 178.858 170.497 179.974C169.494 181.09 169.585 182.808 170.701 183.811L194.96 205.61C196.076 206.613 197.793 206.522 198.796 205.406C199.799 204.29 199.708 202.572 198.592 201.569L174.333 179.77ZM186.352 176.298C185.235 175.295 183.517 175.387 182.515 176.503C181.512 177.619 181.604 179.337 182.72 180.34L197.135 193.294C198.251 194.297 199.969 194.205 200.972 193.089C201.974 191.973 201.883 190.255 200.767 189.252L186.352 176.298ZM200.358 160.713C199.242 159.71 197.524 159.801 196.521 160.917C195.519 162.033 195.61 163.751 196.726 164.754L211.141 177.708C212.257 178.711 213.975 178.619 214.978 177.503C215.98 176.387 215.888 174.669 214.772 173.666L200.358 160.713ZM202.439 148.497C201.323 147.494 199.605 147.586 198.603 148.702C197.6 149.818 197.692 151.536 198.808 152.539L223.065 174.339C224.181 175.342 225.899 175.25 226.902 174.135C227.905 173.019 227.814 171.301 226.698 170.298L202.439 148.497Z" fill="#F27A51"/>
<path d="M160 169.25C160 162.002 167.812 152.758 167.812 152.758C167.812 152.758 162.246 171.086 165.208 182.27C169.689 199.187 200.797 213.519 197.325 213.519C192.531 213.519 189.732 213.449 185.173 211.783C180.472 210.065 177.361 206.575 173.021 205.707C167.102 204.523 160 219.449 160 213.519L160 169.25Z" fill="#7D589E"/>
<path d="M264.436 188.158V165.438H255.476V160.158H279.876V165.438H270.916V188.158H264.436Z" fill="#F27A51"/>
<path d="M295.028 188.158V183.958L294.628 183.038V175.518C294.628 174.185 294.215 173.145 293.388 172.398C292.588 171.652 291.348 171.278 289.668 171.278C288.522 171.278 287.388 171.465 286.268 171.838C285.175 172.185 284.242 172.665 283.468 173.278L281.228 168.918C282.402 168.092 283.815 167.452 285.468 166.998C287.122 166.545 288.802 166.318 290.508 166.318C293.788 166.318 296.335 167.092 298.148 168.638C299.962 170.185 300.868 172.598 300.868 175.878V188.158H295.028ZM288.468 188.478C286.788 188.478 285.348 188.198 284.148 187.638C282.948 187.052 282.028 186.265 281.388 185.278C280.748 184.292 280.428 183.185 280.428 181.958C280.428 180.678 280.735 179.558 281.348 178.598C281.988 177.638 282.988 176.892 284.348 176.358C285.708 175.798 287.482 175.518 289.668 175.518H295.388V179.158H290.348C288.882 179.158 287.868 179.398 287.308 179.878C286.775 180.358 286.508 180.958 286.508 181.678C286.508 182.478 286.815 183.118 287.428 183.598C288.068 184.052 288.935 184.278 290.028 184.278C291.068 184.278 292.002 184.038 292.828 183.558C293.655 183.052 294.255 182.318 294.628 181.358L295.588 184.238C295.135 185.625 294.308 186.678 293.108 187.398C291.908 188.118 290.362 188.478 288.468 188.478Z" fill="#F27A51"/>
<path d="M319.596 166.318C321.303 166.318 322.823 166.665 324.156 167.358C325.516 168.025 326.583 169.065 327.356 170.478C328.129 171.865 328.516 173.652 328.516 175.838V188.158H322.276V176.798C322.276 175.065 321.889 173.785 321.116 172.958C320.369 172.132 319.303 171.718 317.916 171.718C316.929 171.718 316.036 171.932 315.236 172.358C314.463 172.758 313.849 173.385 313.396 174.238C312.969 175.092 312.756 176.185 312.756 177.518V188.158H306.516V166.638H312.476V172.598L311.356 170.798C312.129 169.358 313.236 168.252 314.676 167.478C316.116 166.705 317.756 166.318 319.596 166.318Z" fill="#F27A51"/>
<path d="M336.502 196.238C335.382 196.238 334.275 196.065 333.182 195.718C332.088 195.372 331.195 194.892 330.502 194.278L332.782 189.838C333.262 190.265 333.808 190.598 334.422 190.838C335.062 191.078 335.688 191.198 336.302 191.198C337.182 191.198 337.875 190.985 338.382 190.558C338.915 190.158 339.395 189.478 339.822 188.518L340.942 185.878L341.422 185.198L349.142 166.638H355.142L345.422 189.478C344.728 191.212 343.928 192.572 343.022 193.558C342.142 194.545 341.155 195.238 340.062 195.638C338.995 196.038 337.808 196.238 336.502 196.238ZM340.182 188.998L330.582 166.638H337.022L344.462 184.638L340.182 188.998Z" fill="#F27A51"/>
<path d="M370.185 188.158V183.958L369.785 183.038V175.518C369.785 174.185 369.371 173.145 368.545 172.398C367.745 171.652 366.505 171.278 364.825 171.278C363.678 171.278 362.545 171.465 361.425 171.838C360.331 172.185 359.398 172.665 358.625 173.278L356.385 168.918C357.558 168.092 358.971 167.452 360.625 166.998C362.278 166.545 363.958 166.318 365.665 166.318C368.945 166.318 371.491 167.092 373.305 168.638C375.118 170.185 376.025 172.598 376.025 175.878V188.158H370.185ZM363.625 188.478C361.945 188.478 360.505 188.198 359.305 187.638C358.105 187.052 357.185 186.265 356.545 185.278C355.905 184.292 355.585 183.185 355.585 181.958C355.585 180.678 355.891 179.558 356.505 178.598C357.145 177.638 358.145 176.892 359.505 176.358C360.865 175.798 362.638 175.518 364.825 175.518H370.545V179.158H365.505C364.038 179.158 363.025 179.398 362.465 179.878C361.931 180.358 361.665 180.958 361.665 181.678C361.665 182.478 361.971 183.118 362.585 183.598C363.225 184.052 364.091 184.278 365.185 184.278C366.225 184.278 367.158 184.038 367.985 183.558C368.811 183.052 369.411 182.318 369.785 181.358L370.745 184.238C370.291 185.625 369.465 186.678 368.265 187.398C367.065 188.118 365.518 188.478 363.625 188.478Z" fill="#F27A51"/>
<path d="M393.44 188.158V160.158H398.8L415.32 180.318H412.72V160.158H419.12V188.158H413.8L397.24 167.998H399.84V188.158H393.44Z" fill="#7D589E"/>
<path d="M435.545 188.478C433.252 188.478 431.212 187.998 429.425 187.038C427.665 186.078 426.265 184.772 425.225 183.118C424.212 181.438 423.705 179.532 423.705 177.398C423.705 175.238 424.212 173.332 425.225 171.678C426.265 169.998 427.665 168.692 429.425 167.758C431.212 166.798 433.252 166.318 435.545 166.318C437.812 166.318 439.838 166.798 441.625 167.758C443.412 168.692 444.812 169.985 445.825 171.638C446.838 173.292 447.345 175.212 447.345 177.398C447.345 179.532 446.838 181.438 445.825 183.118C444.812 184.772 443.412 186.078 441.625 187.038C439.838 187.998 437.812 188.478 435.545 188.478ZM435.545 183.358C436.585 183.358 437.518 183.118 438.345 182.638C439.172 182.158 439.825 181.478 440.305 180.598C440.785 179.692 441.025 178.625 441.025 177.398C441.025 176.145 440.785 175.078 440.305 174.198C439.825 173.318 439.172 172.638 438.345 172.158C437.518 171.678 436.585 171.438 435.545 171.438C434.505 171.438 433.572 171.678 432.745 172.158C431.918 172.638 431.252 173.318 430.745 174.198C430.265 175.078 430.025 176.145 430.025 177.398C430.025 178.625 430.265 179.692 430.745 180.598C431.252 181.478 431.918 182.158 432.745 182.638C433.572 183.118 434.505 183.358 435.545 183.358Z" fill="#7D589E"/>
<path d="M460.316 188.478C457.783 188.478 455.809 187.838 454.396 186.558C452.983 185.252 452.276 183.318 452.276 180.758V161.878H458.516V180.678C458.516 181.585 458.756 182.292 459.236 182.798C459.716 183.278 460.369 183.518 461.196 183.518C462.183 183.518 463.023 183.252 463.716 182.718L465.396 187.118C464.756 187.572 463.983 187.918 463.076 188.158C462.196 188.372 461.276 188.478 460.316 188.478ZM448.956 171.918V167.118H463.876V171.918H448.956Z" fill="#7D589E"/>
<path d="M482.099 188.158V183.958L481.699 183.038V175.518C481.699 174.185 481.285 173.145 480.459 172.398C479.659 171.652 478.419 171.278 476.739 171.278C475.592 171.278 474.459 171.465 473.339 171.838C472.245 172.185 471.312 172.665 470.539 173.278L468.299 168.918C469.472 168.092 470.885 167.452 472.539 166.998C474.192 166.545 475.872 166.318 477.579 166.318C480.859 166.318 483.405 167.092 485.219 168.638C487.032 170.185 487.939 172.598 487.939 175.878V188.158H482.099ZM475.539 188.478C473.859 188.478 472.419 188.198 471.219 187.638C470.019 187.052 469.099 186.265 468.459 185.278C467.819 184.292 467.499 183.185 467.499 181.958C467.499 180.678 467.805 179.558 468.419 178.598C469.059 177.638 470.059 176.892 471.419 176.358C472.779 175.798 474.552 175.518 476.739 175.518H482.459V179.158H477.419C475.952 179.158 474.939 179.398 474.379 179.878C473.845 180.358 473.579 180.958 473.579 181.678C473.579 182.478 473.885 183.118 474.499 183.598C475.139 184.052 476.005 184.278 477.099 184.278C478.139 184.278 479.072 184.038 479.899 183.558C480.725 183.052 481.325 182.318 481.699 181.358L482.659 184.238C482.205 185.625 481.379 186.678 480.179 187.398C478.979 188.118 477.432 188.478 475.539 188.478Z" fill="#7D589E"/>
<path d="M493.586 188.158V166.638H499.546V172.718L498.706 170.958C499.346 169.438 500.373 168.292 501.786 167.518C503.2 166.718 504.92 166.318 506.946 166.318V172.078C506.68 172.052 506.44 172.038 506.226 172.038C506.013 172.012 505.786 171.998 505.546 171.998C503.84 171.998 502.453 172.492 501.386 173.478C500.346 174.438 499.826 175.945 499.826 177.998V188.158H493.586Z" fill="#7D589E"/>
<path d="M510.696 188.158V166.638H516.936V188.158H510.696ZM513.816 163.638C512.669 163.638 511.736 163.305 511.016 162.638C510.296 161.972 509.936 161.145 509.936 160.158C509.936 159.172 510.296 158.345 511.016 157.678C511.736 157.012 512.669 156.678 513.816 156.678C514.962 156.678 515.896 156.998 516.616 157.638C517.336 158.252 517.696 159.052 517.696 160.038C517.696 161.078 517.336 161.945 516.616 162.638C515.922 163.305 514.989 163.638 513.816 163.638Z" fill="#7D589E"/>
<path d="M529.967 188.478C528.127 188.478 526.354 188.265 524.647 187.838C522.967 187.385 521.634 186.825 520.647 186.158L522.727 181.678C523.714 182.292 524.874 182.798 526.207 183.198C527.567 183.572 528.9 183.758 530.207 183.758C531.647 183.758 532.66 183.585 533.247 183.238C533.86 182.892 534.167 182.412 534.167 181.798C534.167 181.292 533.927 180.918 533.447 180.678C532.994 180.412 532.38 180.212 531.607 180.078C530.834 179.945 529.98 179.812 529.047 179.678C528.14 179.545 527.22 179.372 526.287 179.158C525.354 178.918 524.5 178.572 523.727 178.118C522.954 177.665 522.327 177.052 521.847 176.278C521.394 175.505 521.167 174.505 521.167 173.278C521.167 171.918 521.554 170.718 522.327 169.678C523.127 168.638 524.274 167.825 525.767 167.238C527.26 166.625 529.047 166.318 531.127 166.318C532.594 166.318 534.087 166.478 535.607 166.798C537.127 167.118 538.394 167.585 539.407 168.198L537.327 172.638C536.287 172.025 535.234 171.612 534.167 171.398C533.127 171.158 532.114 171.038 531.127 171.038C529.74 171.038 528.727 171.225 528.087 171.598C527.447 171.972 527.127 172.452 527.127 173.038C527.127 173.572 527.354 173.972 527.807 174.238C528.287 174.505 528.914 174.718 529.687 174.878C530.46 175.038 531.3 175.185 532.207 175.318C533.14 175.425 534.074 175.598 535.007 175.838C535.94 176.078 536.78 176.425 537.527 176.878C538.3 177.305 538.927 177.905 539.407 178.678C539.887 179.425 540.127 180.412 540.127 181.638C540.127 182.972 539.727 184.158 538.927 185.198C538.127 186.212 536.967 187.012 535.447 187.598C533.954 188.185 532.127 188.478 529.967 188.478Z" fill="#7D589E"/>
</svg>
