<svg width="85" height="68" viewBox="0 0 85 68" fill="none" xmlns="http://www.w3.org/2000/svg">
<path d="M49.6582 28.0225C49.9544 27.6153 50.5153 27.4883 50.9619 27.7432L59.6543 32.7051C59.8858 32.8375 60.055 33.0569 60.124 33.3145C60.1931 33.5723 60.156 33.8468 60.0215 34.0772L57.9248 37.6671C58.2886 37.4819 58.6575 37.3116 59.0312 37.1573L59.0332 37.1563C60.8279 36.4205 62.6733 36.0979 64.5596 36.1983H64.5586C66.4775 36.2792 68.3469 36.8514 70.1572 37.8848C70.4707 38.0638 70.7597 38.2576 71.0215 38.4669C71.2936 38.6536 71.585 38.8878 71.7773 39.1758C71.9897 39.4939 72.0024 39.9052 71.8096 40.2354L66.8447 48.7374C66.675 49.0281 66.3703 49.2136 66.0342 49.2315C65.6981 49.2493 65.3753 49.0972 65.1758 48.8262C65.1235 48.7552 65.02 48.6488 64.8291 48.5196L64.8242 48.5167C64.5851 48.3526 64.3655 48.1994 64.166 48.0577H64.165C62.5302 46.9419 61.0731 46.1811 59.7891 45.7471C58.4905 45.3083 57.381 45.177 56.4404 45.2969C55.4773 45.4198 54.6573 45.7561 53.9561 46.2969C53.221 46.864 52.5672 47.6195 52.0039 48.584L41.8955 65.8946C41.6188 66.3679 41.0123 66.5307 40.5361 66.2589L31.5039 61.1026C31.2723 60.9703 31.1033 60.7508 31.0342 60.4932C30.9651 60.2354 31.0021 59.9601 31.1367 59.7296L49.6025 28.1075L49.6582 28.0225ZM22.9619 1.00006C27.2253 1.00006 31.0796 1.73339 34.5059 3.22272C37.9513 4.69431 40.694 6.88943 42.7002 9.80963H42.6992C44.7516 12.7585 45.752 16.3288 45.752 20.4659C45.7519 24.3587 44.8752 27.7472 43.0742 30.585C41.2826 33.4081 38.7651 35.558 35.5557 37.0352L35.5547 37.0342C32.376 38.5092 28.6688 39.2305 24.46 39.2305H14.584V65.0001C14.584 65.5523 14.1363 66.0001 13.584 66.0001H2C1.44772 66.0001 1 65.5523 1 65.0001V2.00006C1 1.44778 1.44772 1.00006 2 1.00006H22.9619ZM77 52.0001C80.866 52.0001 84 55.1341 84 59.0001C84 62.866 80.866 66.0001 77 66.0001C73.134 66.0001 70 62.866 70 59.0001C70 55.1341 73.134 52.0001 77 52.0001ZM14.4658 28.4258H24.1445C26.8016 28.4258 28.9002 27.6001 30.5283 25.9932L30.8271 25.6797C32.2724 24.0908 32.995 22.1762 32.9951 19.8819C32.9951 17.3374 32.1285 15.4094 30.4355 13.9844L30.4297 13.9796C28.6835 12.4864 26.5552 11.7266 23.9863 11.7266H14.4658V28.4258Z" fill="#F9F6F1" stroke="#111111" stroke-width="2" stroke-linejoin="round"/>
</svg>
